<svg xmlns="http://www.w3.org/2000/svg" xmlns:xlink="http://www.w3.org/1999/xlink" width="790" height="407.36"><rect width="790" height="407.36" rx="5" ry="5" class="a"/><svg y="0%" x="0%"><circle cx="20" cy="20" r="6" fill="#ff5f58"/><circle cx="40" cy="20" r="6" fill="#ffbd2e"/><circle cx="60" cy="20" r="6" fill="#18c132"/></svg><svg height="347.36" viewBox="0 0 75 34.736" width="750" x="15" xmlns="http://www.w3.org/2000/svg" xmlns:xlink="http://www.w3.org/1999/xlink" y="50"><style>@keyframes o{0%{transform:translateX(0)}1.79%{transform:translateX(-150px)}3.67%{transform:translateX(-225px)}4.09%{transform:translateX(-300px)}5.02%{transform:translateX(-375px)}6.12%{transform:translateX(-450px)}7.42%{transform:translateX(-600px)}7.43%{transform:translateX(-675px)}8.59%{transform:translateX(-825px)}8.89%{transform:translateX(-900px)}9.19%{transform:translateX(-975px)}9.49%{transform:translateX(-1125px)}9.79%{transform:translateX(-1200px)}10.09%{transform:translateX(-1275px)}10.39%{transform:translateX(-1350px)}10.69%{transform:translateX(-1425px)}10.99%{transform:translateX(-1500px)}11.3%{transform:translateX(-1575px)}11.6%{transform:translateX(-1650px)}11.9%{transform:translateX(-1725px)}12.2%{transform:translateX(-1800px)}12.5%{transform:translateX(-1875px)}12.8%{transform:translateX(-1950px)}13.1%{transform:translateX(-2025px)}13.4%{transform:translateX(-2100px)}13.7%{transform:translateX(-2175px)}14%{transform:translateX(-2250px)}14.3%{transform:translateX(-2325px)}14.63%{transform:translateX(-2400px)}14.89%{transform:translateX(-2475px)}23.51%{transform:translateX(-2625px)}27.6%{transform:translateX(-2775px)}28.35%{transform:translateX(-2850px)}28.36%{transform:translateX(-3000px)}28.98%{transform:translateX(-3150px)}31.15%{transform:translateX(-3300px)}31.16%{transform:translateX(-3450px)}33.62%{transform:translateX(-3600px)}34.31%{transform:translateX(-3675px)}34.32%{transform:translateX(-3750px)}34.89%{transform:translateX(-3900px)}35.51%{transform:translateX(-4200px)}35.52%{transform:translateX(-4275px)}38.08%{transform:translateX(-4500px)}38.09%{transform:translateX(-4575px)}42.25%{transform:translateX(-4800px)}42.26%{transform:translateX(-4875px)}45.86%{transform:translateX(-5025px)}47.4%{transform:translateX(-5175px)}47.43%{transform:translateX(-5250px)}51.25%{transform:translateX(-5325px)}52.28%{transform:translateX(-5475px)}52.96%{transform:translateX(-5625px)}54.44%{transform:translateX(-5775px)}55.93%{transform:translateX(-5925px)}57.52%{transform:translateX(-6150px)}57.53%{transform:translateX(-6225px)}63.69%{transform:translateX(-6375px)}65.03%{transform:translateX(-6525px)}66.59%{transform:translateX(-6675px)}70.09%{transform:translateX(-6825px)}70.77%{transform:translateX(-6975px)}71.37%{transform:translateX(-7125px)}71.88%{transform:translateX(-7350px)}82.29%{transform:translateX(-7575px)}82.3%{transform:translateX(-7800px)}82.36%{transform:translateX(-7950px)}to{transform:translateX(-8025px)}}.a{fill:#282d35}.f,.g{fill:#a8cc8c;font-weight:700;white-space:pre}.g{fill:#66c2cd}.h,.i,.j,.k,.q{fill:#a8cc8c;white-space:pre}.i,.j,.k,.q{fill:#b9c0cb}.j,.k,.q{fill:#6f7783}.k,.q{fill:#66c2cd}.q{fill:#e88388;font-weight:700}</style><g font-family="Monaco,Consolas,Menlo,'Bitstream Vera Sans Mono','Powerline Symbols',monospace" font-size="1.67"><defs><symbol id="1"><text y="1.67" class="f">➜</text><text x="3.006" y="1.67" class="g">CODE</text></symbol><symbol id="2"><text y="1.67" class="f">➜</text><text x="3.006" y="1.67" class="g">CODE</text><text x="8.016" y="1.67" class="h">npx</text><text x="12.024" y="1.67" class="i">@e.fe/create-app@latest</text></symbol><symbol id="3"><text y="1.67" class="i">⠙</text></symbol><symbol id="4"><text y="1.67" class="i">⠹</text></symbol><symbol id="5"><text y="1.67" class="i">⠸</text></symbol><symbol id="6"><text y="1.67" class="i">⠼</text></symbol><symbol id="7"><text y="1.67" class="i">⠴</text></symbol><symbol id="8"><text y="1.67" class="i">⠦</text></symbol><symbol id="9"><text y="1.67" class="i">⠧</text></symbol><symbol id="10"><text y="1.67" class="i">⠇</text></symbol><symbol id="11"><text y="1.67" class="i">⠏</text></symbol><symbol id="12"><text y="1.67" class="i">⠋</text></symbol><symbol id="13"><text y="1.67" class="j">│</text></symbol><symbol id="14"><text y="1.67" class="k">◆</text><text x="3.006" y="1.67" class="i">Please</text><text x="10.02" y="1.67" class="i">enter</text><text x="16.032" y="1.67" class="i">project</text><text x="24.048" y="1.67" class="i">name</text><text x="29.058" y="1.67" class="j">(lowercase</text><text x="40.08" y="1.67" class="j">letters,</text><text x="49.098" y="1.67" class="j">numbers,</text><text x="58.116" y="1.67" class="j">connected</text><text x="68.136" y="1.67" class="j">by</text><text x="71.142" y="1.67" class="j">hyph</text></symbol><symbol id="15"><text y="1.67" class="j">ens)</text><text x="4.008" y="1.67" class="i">:</text></symbol><symbol id="16"><text y="1.67" class="k">│</text><path fill="#b9c0cb" d="M3.006 0h1v2.171h-1z"/><text x="3.006" y="1.67" style="white-space:pre" fill="#282d35">_</text></symbol><symbol id="17"><text y="1.67" class="k">└</text></symbol><symbol id="18"><text y="1.67" class="k">│</text><text x="3.006" y="1.67" class="i">x█</text></symbol><symbol id="19"><text y="1.67" class="k">│</text><text x="3.006" y="1.67" class="i">xx█</text></symbol><symbol id="20"><text y="1.67" class="k">│</text><text x="3.006" y="1.67" class="i">xxx█</text></symbol><symbol id="21"><text y="1.67" class="j">│</text><text x="3.006" y="1.67" class="i">xxx█</text></symbol><symbol id="22"><text y="1.67" class="k">◆</text><text x="3.006" y="1.67" class="i">Please</text><text x="10.02" y="1.67" class="i">enter</text><text x="16.032" y="1.67" class="i">project</text><text x="24.048" y="1.67" class="i">description</text><text x="36.072" y="1.67" class="j">(optional,</text><text x="47.094" y="1.67" class="j">press</text><text x="53.106" y="1.67" class="j">Enter</text><text x="59.118" y="1.67" class="j">to</text><text x="62.124" y="1.67" class="j">skip)</text><text x="67.134" y="1.67" class="i">:</text></symbol><symbol id="23"><text y="1.67" class="h">◇</text><text x="3.006" y="1.67" class="i">Please</text><text x="10.02" y="1.67" class="i">enter</text><text x="16.032" y="1.67" class="i">project</text><text x="24.048" y="1.67" class="i">description</text><text x="36.072" y="1.67" class="j">(optional,</text><text x="47.094" y="1.67" class="j">press</text><text x="53.106" y="1.67" class="j">Enter</text><text x="59.118" y="1.67" class="j">to</text><text x="62.124" y="1.67" class="j">skip)</text><text x="67.134" y="1.67" class="i">:</text></symbol><symbol id="24"><text y="1.67" class="j">│</text><text x="3.006" y="1.67" class="i">xxx</text></symbol><symbol id="25"><text y="1.67" class="k">◆</text><text x="3.006" y="1.67" class="i">Please</text><text x="10.02" y="1.67" class="i">select:</text></symbol><symbol id="26"><text y="1.67" class="k">│</text><text x="3.006" y="1.67" class="h">●</text><text x="5.01" y="1.67" class="i">Library（SDK）</text></symbol><symbol id="27"><text y="1.67" class="k">│</text><text x="3.006" y="1.67" class="i">○</text><text x="5.01" y="1.67" class="i">Monorepo（packages/apps）</text></symbol><symbol id="28"><text y="1.67" class="h">◇</text><text x="3.006" y="1.67" class="i">Please</text><text x="10.02" y="1.67" class="i">select:</text></symbol><symbol id="29"><text y="1.67" class="j">│</text><text x="3.006" y="1.67" class="i">Library（SDK）</text></symbol><symbol id="30"><text y="1.67" class="k">◆</text><text x="3.006" y="1.67" class="i">Please</text><text x="10.02" y="1.67" class="i">select</text><text x="17.034" y="1.67" class="i">package</text><text x="25.05" y="1.67" class="i">manager:</text></symbol><symbol id="31"><text y="1.67" class="k">│</text><text x="3.006" y="1.67" class="h">●</text><text x="5.01" y="1.67" class="i">pnpm</text></symbol><symbol id="32"><text y="1.67" class="k">│</text><text x="3.006" y="1.67" class="i">○</text><text x="5.01" y="1.67" class="i">npm</text></symbol><symbol id="33"><text y="1.67" class="k">│</text><text x="3.006" y="1.67" class="i">○</text><text x="5.01" y="1.67" class="i">yarn</text></symbol><symbol id="34"><text y="1.67" class="h">◇</text><text x="3.006" y="1.67" class="i">Please</text><text x="10.02" y="1.67" class="i">select</text><text x="17.034" y="1.67" class="i">package</text><text x="25.05" y="1.67" class="i">manager:</text></symbol><symbol id="35"><text y="1.67" class="j">│</text><text x="3.006" y="1.67" class="i">pnpm</text></symbol><symbol id="36"><text y="1.67" class="k">◆</text><text x="3.006" y="1.67" class="i">Do</text><text x="6.012" y="1.67" class="i">you</text><text x="10.02" y="1.67" class="i">want</text><text x="15.03" y="1.67" class="i">to</text><text x="18.036" y="1.67" class="i">install</text><text x="26.052" y="1.67" class="i">now?</text></symbol><symbol id="37"><text y="1.67" class="k">│</text><text x="3.006" y="1.67" class="h">●</text><text x="5.01" y="1.67" class="i">Yes</text><text x="9.018" y="1.67" class="i">/</text><text x="11.022" y="1.67" class="i">○</text><text x="13.026" y="1.67" class="i">No</text></symbol><symbol id="38"><text y="1.67" class="h">◇</text><text x="3.006" y="1.67" class="i">Do</text><text x="6.012" y="1.67" class="i">you</text><text x="10.02" y="1.67" class="i">want</text><text x="15.03" y="1.67" class="i">to</text><text x="18.036" y="1.67" class="i">install</text><text x="26.052" y="1.67" class="i">now?</text></symbol><symbol id="39"><text y="1.67" class="j">│</text><text x="3.006" y="1.67" class="i">No</text></symbol><symbol id="40"><text y="1.67" class="k">│</text><text x="3.006" y="1.67" class="h">●</text><text x="5.01" y="1.67" class="i">unbuild</text><text x="13.026" y="1.67" class="i">(https://github.com/unjs/unbuild)</text></symbol><symbol id="41"><text y="1.67" class="k">│</text><text x="3.006" y="1.67" class="i">○</text><text x="5.01" y="1.67" class="i">vite</text></symbol><symbol id="42"><text y="1.67" class="k">│</text><text x="3.006" y="1.67" class="i">○</text><text x="5.01" y="1.67" class="i">tsup</text></symbol><symbol id="43"><text y="1.67" class="k">│</text><text x="3.006" y="1.67" class="i">○</text><text x="5.01" y="1.67" class="i">rollup</text></symbol><symbol id="44"><text y="1.67" class="k">│</text><text x="3.006" y="1.67" class="i">○</text><text x="5.01" y="1.67" class="i">unbuild</text></symbol><symbol id="45"><text y="1.67" class="k">│</text><text x="3.006" y="1.67" class="h">●</text><text x="5.01" y="1.67" class="i">vite</text><text x="10.02" y="1.67" class="i">(https://vite.dev/)</text></symbol><symbol id="46"><text y="1.67" class="k">│</text><text x="3.006" y="1.67" class="h">●</text><text x="5.01" y="1.67" class="i">tsup</text><text x="10.02" y="1.67" class="i">(https://github.com/egoist/tsup)</text></symbol><symbol id="47"><text y="1.67" class="k">│</text><text x="3.006" y="1.67" class="h">●</text><text x="5.01" y="1.67" class="i">rollup</text><text x="12.024" y="1.67" class="i">(https://rollupjs.org/)</text></symbol><symbol id="48"><text y="1.67" class="j">│</text><text x="3.006" y="1.67" class="i">vite</text></symbol><symbol id="49"><text y="1.67" class="k">◆</text><text x="3.006" y="1.67" class="i">Please</text><text x="10.02" y="1.67" class="i">enter</text><text x="16.032" y="1.67" class="i">package</text><text x="24.048" y="1.67" class="i">name</text><text x="29.058" y="1.67" class="i">(scopeName,</text><text x="41.082" y="1.67" class="i">example:</text><text x="50.1" y="1.67" class="i">@scope/xxx)</text></symbol><symbol id="50"><text y="1.67" class="k">│</text><text x="3.006" y="1.67" class="i">@█</text></symbol><symbol id="51"><text y="1.67" class="k">│</text><text x="3.006" y="1.67" class="i">@e█</text></symbol><symbol id="52"><text y="1.67" class="k">│</text><text x="3.006" y="1.67" class="i">@e/x█</text></symbol><symbol id="53"><text y="1.67" class="k">│</text><text x="3.006" y="1.67" class="i">@e/xx█</text></symbol><symbol id="54"><text y="1.67" class="k">│</text><text x="3.006" y="1.67" class="i">@e/xxx█</text></symbol><symbol id="55"><text y="1.67" class="h">◇</text><text x="3.006" y="1.67" class="i">Please</text><text x="10.02" y="1.67" class="i">enter</text><text x="16.032" y="1.67" class="i">package</text><text x="24.048" y="1.67" class="i">name</text><text x="29.058" y="1.67" class="i">(scopeName,</text><text x="41.082" y="1.67" class="i">example:</text><text x="50.1" y="1.67" class="i">@scope/xxx)</text></symbol><symbol id="56"><text y="1.67" class="j">│</text><text x="3.006" y="1.67" class="i">@e/xxx</text></symbol><symbol id="57"><text y="1.67" class="i">Success!</text><text x="9.018" y="1.67" class="i">Created</text><text x="17.034" y="1.67" class="h">xxx</text><text x="21.042" y="1.67" class="i">at</text><text x="24.048" y="1.67" class="h">/Users/eleven/Documents/CODE/xxx</text></symbol><symbol id="58"><text y="1.67" class="i">Now</text><text x="4.008" y="1.67" class="i">you</text><text x="8.016" y="1.67" class="i">can</text><text x="12.024" y="1.67" class="i">start</text><text x="18.036" y="1.67" class="i">the</text><text x="22.044" y="1.67" class="i">development:</text></symbol><symbol id="59"><text x="2.004" y="1.67" class="k">cd</text><text x="5.01" y="1.67" class="h">xxx</text></symbol><symbol id="60"><text x="2.004" y="1.67" class="k">npm</text><text x="6.012" y="1.67" class="k">start</text></symbol><symbol id="a"><path fill="transparent" d="M0 0h75v17H0z"/></symbol></defs><path class="a" d="M0 0h75v34.736H0z"/><g style="animation-duration:26.925713s;animation-iteration-count:infinite;animation-name:o;animation-timing-function:steps(1,end)"><svg width="8100"><svg><use xlink:href="#a"/></svg><svg x="75"><use xlink:href="#a"/><use xlink:href="#1"/></svg><svg x="150"><use xlink:href="#a"/><use xlink:href="#1"/></svg><svg x="225"><use xlink:href="#a"/><text y="1.67" class="f">➜</text><text x="3.006" y="1.67" class="g">CODE</text><text x="8.016" y="1.67" class="q">n</text><text x="9.018" y="1.67" class="j">px</text><text x="12.024" y="1.67" class="j">@e.fe/create-app@latest</text></svg><svg x="300"><use xlink:href="#a"/><text y="1.67" class="f">➜</text><text x="3.006" y="1.67" class="g">CODE</text><text x="8.016" y="1.67" class="q">np</text><text x="10.02" y="1.67" class="j">x</text><text x="12.024" y="1.67" class="j">@e.fe/create-app@latest</text></svg><svg x="375"><use xlink:href="#a"/><text y="1.67" class="f">➜</text><text x="3.006" y="1.67" class="g">CODE</text><text x="8.016" y="1.67" class="h">npx</text><text x="12.024" y="1.67" class="j">@e.fe/create-app@latest</text></svg><svg x="450"><use xlink:href="#a"/><use xlink:href="#2"/></svg><svg x="525"><use xlink:href="#a"/><use xlink:href="#2"/></svg><svg x="600"><use xlink:href="#a"/><use xlink:href="#2"/></svg><svg x="675"><use xlink:href="#a"/><use xlink:href="#2"/></svg><svg x="750"><use xlink:href="#a"/><use xlink:href="#2"/></svg><svg x="825"><use xlink:href="#a"/><use xlink:href="#2"/><use xlink:href="#3" y="2.171"/></svg><svg x="900"><use xlink:href="#a"/><use xlink:href="#2"/><use xlink:href="#4" y="2.171"/></svg><svg x="975"><use xlink:href="#a"/><use xlink:href="#2"/><use xlink:href="#5" y="2.171"/></svg><svg x="1050"><use xlink:href="#a"/><use xlink:href="#2"/></svg><svg x="1125"><use xlink:href="#a"/><use xlink:href="#2"/><use xlink:href="#6" y="2.171"/></svg><svg x="1200"><use xlink:href="#a"/><use xlink:href="#2"/><use xlink:href="#7" y="2.171"/></svg><svg x="1275"><use xlink:href="#a"/><use xlink:href="#2"/><use xlink:href="#8" y="2.171"/></svg><svg x="1350"><use xlink:href="#a"/><use xlink:href="#2"/><use xlink:href="#9" y="2.171"/></svg><svg x="1425"><use xlink:href="#a"/><use xlink:href="#2"/><use xlink:href="#10" y="2.171"/></svg><svg x="1500"><use xlink:href="#a"/><use xlink:href="#2"/><use xlink:href="#11" y="2.171"/></svg><svg x="1575"><use xlink:href="#a"/><use xlink:href="#2"/><use xlink:href="#12" y="2.171"/></svg><svg x="1650"><use xlink:href="#a"/><use xlink:href="#2"/><use xlink:href="#3" y="2.171"/></svg><svg x="1725"><use xlink:href="#a"/><use xlink:href="#2"/><use xlink:href="#4" y="2.171"/></svg><svg x="1800"><use xlink:href="#a"/><use xlink:href="#2"/><use xlink:href="#5" y="2.171"/></svg><svg x="1875"><use xlink:href="#a"/><use xlink:href="#2"/><use xlink:href="#6" y="2.171"/></svg><svg x="1950"><use xlink:href="#a"/><use xlink:href="#2"/><use xlink:href="#7" y="2.171"/></svg><svg x="2025"><use xlink:href="#a"/><use xlink:href="#2"/><use xlink:href="#8" y="2.171"/></svg><svg x="2100"><use xlink:href="#a"/><use xlink:href="#2"/><use xlink:href="#9" y="2.171"/></svg><svg x="2175"><use xlink:href="#a"/><use xlink:href="#2"/><use xlink:href="#10" y="2.171"/></svg><svg x="2250"><use xlink:href="#a"/><use xlink:href="#2"/><use xlink:href="#11" y="2.171"/></svg><svg x="2325"><use xlink:href="#a"/><use xlink:href="#2"/><use xlink:href="#12" y="2.171"/></svg><svg x="2400"><use xlink:href="#a"/><use xlink:href="#2"/><use xlink:href="#3" y="2.171"/></svg><svg x="2475"><use xlink:href="#a"/><use xlink:href="#2"/></svg><svg x="2550"><use xlink:href="#a"/><use xlink:href="#2"/></svg><svg x="2625"><use xlink:href="#a"/><use xlink:href="#2"/><use xlink:href="#13" y="2.171"/><use xlink:href="#14" y="4.342"/><use xlink:href="#15" y="6.513"/><use xlink:href="#16" y="8.684"/><use xlink:href="#17" y="10.855"/></svg><svg x="2700"><use xlink:href="#a"/><use xlink:href="#2"/><use xlink:href="#13" y="2.171"/><use xlink:href="#14" y="4.342"/><use xlink:href="#15" y="6.513"/><use xlink:href="#16" y="8.684"/><use xlink:href="#17" y="10.855"/></svg><svg x="2775"><use xlink:href="#a"/><use xlink:href="#2"/><use xlink:href="#13" y="2.171"/><use xlink:href="#14" y="4.342"/><use xlink:href="#15" y="6.513"/><use xlink:href="#18" y="8.684"/><use xlink:href="#17" y="10.855"/></svg><svg x="2850"><use xlink:href="#a"/><use xlink:href="#2"/><use xlink:href="#13" y="2.171"/><use xlink:href="#14" y="4.342"/><use xlink:href="#15" y="6.513"/><use xlink:href="#18" y="8.684"/><use xlink:href="#17" y="10.855"/></svg><svg x="2925"><use xlink:href="#a"/><use xlink:href="#2"/><use xlink:href="#13" y="2.171"/><use xlink:href="#14" y="4.342"/><use xlink:href="#15" y="6.513"/><use xlink:href="#17" y="10.855"/></svg><svg x="3000"><use xlink:href="#a"/><use xlink:href="#2"/><use xlink:href="#13" y="2.171"/><use xlink:href="#14" y="4.342"/><use xlink:href="#15" y="6.513"/><use xlink:href="#19" y="8.684"/><use xlink:href="#17" y="10.855"/></svg><svg x="3075"><use xlink:href="#a"/><use xlink:href="#2"/><use xlink:href="#13" y="2.171"/><use xlink:href="#14" y="4.342"/><use xlink:href="#15" y="6.513"/><use xlink:href="#19" y="8.684"/><use xlink:href="#17" y="10.855"/></svg><svg x="3150"><use xlink:href="#a"/><use xlink:href="#2"/><use xlink:href="#13" y="2.171"/><use xlink:href="#14" y="4.342"/><use xlink:href="#15" y="6.513"/><use xlink:href="#20" y="8.684"/><use xlink:href="#17" y="10.855"/></svg><svg x="3225"><use xlink:href="#a"/><use xlink:href="#2"/><use xlink:href="#13" y="2.171"/><use xlink:href="#14" y="4.342"/><use xlink:href="#15" y="6.513"/><use xlink:href="#20" y="8.684"/><use xlink:href="#17" y="10.855"/></svg><svg x="3300"><use xlink:href="#a"/><use xlink:href="#2"/><use xlink:href="#13" y="2.171"/><use xlink:href="#14" y="4.342"/><use xlink:href="#15" y="6.513"/><use xlink:href="#20" y="8.684"/><use xlink:href="#17" y="10.855"/></svg><svg x="3375"><use xlink:href="#a"/><use xlink:href="#2"/><use xlink:href="#13" y="2.171"/><use xlink:href="#14" y="4.342"/><use xlink:href="#15" y="6.513"/><use xlink:href="#20" y="8.684"/><use xlink:href="#17" y="10.855"/></svg><svg x="3450"><use xlink:href="#a"/><use xlink:href="#2"/><use xlink:href="#13" y="2.171"/><use xlink:href="#14" y="4.342"/><use xlink:href="#15" y="6.513"/><use xlink:href="#21" y="8.684"/><use xlink:href="#22" y="10.855"/><use xlink:href="#16" y="13.026"/><use xlink:href="#17" y="15.197"/></svg><svg x="3525"><use xlink:href="#a"/><use xlink:href="#2"/><use xlink:href="#13" y="2.171"/><use xlink:href="#14" y="4.342"/><use xlink:href="#15" y="6.513"/><use xlink:href="#21" y="8.684"/><use xlink:href="#22" y="10.855"/><use xlink:href="#16" y="13.026"/><use xlink:href="#17" y="15.197"/></svg><svg x="3600"><use xlink:href="#a"/><use xlink:href="#2"/><use xlink:href="#13" y="2.171"/><use xlink:href="#14" y="4.342"/><use xlink:href="#15" y="6.513"/><use xlink:href="#21" y="8.684"/><use xlink:href="#22" y="10.855"/><use xlink:href="#18" y="13.026"/><use xlink:href="#17" y="15.197"/></svg><svg x="3675"><use xlink:href="#a"/><use xlink:href="#2"/><use xlink:href="#13" y="2.171"/><use xlink:href="#14" y="4.342"/><use xlink:href="#15" y="6.513"/><use xlink:href="#21" y="8.684"/><use xlink:href="#22" y="10.855"/><use xlink:href="#18" y="13.026"/><use xlink:href="#17" y="15.197"/></svg><svg x="3750"><use xlink:href="#a"/><use xlink:href="#2"/><use xlink:href="#13" y="2.171"/><use xlink:href="#14" y="4.342"/><use xlink:href="#15" y="6.513"/><use xlink:href="#21" y="8.684"/><use xlink:href="#22" y="10.855"/><use xlink:href="#19" y="13.026"/><use xlink:href="#17" y="15.197"/></svg><svg x="3825"><use xlink:href="#a"/><use xlink:href="#2"/><use xlink:href="#13" y="2.171"/><use xlink:href="#14" y="4.342"/><use xlink:href="#15" y="6.513"/><use xlink:href="#21" y="8.684"/><use xlink:href="#22" y="10.855"/><use xlink:href="#19" y="13.026"/><use xlink:href="#17" y="15.197"/></svg><svg x="3900"><use xlink:href="#a"/><use xlink:href="#2"/><use xlink:href="#13" y="2.171"/><use xlink:href="#14" y="4.342"/><use xlink:href="#15" y="6.513"/><use xlink:href="#21" y="8.684"/><use xlink:href="#22" y="10.855"/><use xlink:href="#20" y="13.026"/><use xlink:href="#17" y="15.197"/></svg><svg x="3975"><use xlink:href="#a"/><use xlink:href="#2"/><use xlink:href="#13" y="2.171"/><use xlink:href="#14" y="4.342"/><use xlink:href="#15" y="6.513"/><use xlink:href="#21" y="8.684"/><use xlink:href="#22" y="10.855"/><use xlink:href="#20" y="13.026"/><use xlink:href="#17" y="15.197"/></svg><svg x="4050"><use xlink:href="#a"/><use xlink:href="#2"/><use xlink:href="#13" y="2.171"/><use xlink:href="#14" y="4.342"/><use xlink:href="#15" y="6.513"/><use xlink:href="#21" y="8.684"/><use xlink:href="#23" y="10.855"/><use xlink:href="#24" y="13.026"/></svg><svg x="4125"><use xlink:href="#a"/><use xlink:href="#2"/><use xlink:href="#13" y="2.171"/><use xlink:href="#14" y="4.342"/><use xlink:href="#15" y="6.513"/><use xlink:href="#21" y="8.684"/><use xlink:href="#23" y="10.855"/><use xlink:href="#24" y="13.026"/></svg><svg x="4200"><use xlink:href="#a"/><use xlink:href="#2"/><use xlink:href="#13" y="2.171"/><use xlink:href="#14" y="4.342"/><use xlink:href="#15" y="6.513"/><use xlink:href="#21" y="8.684"/><use xlink:href="#23" y="10.855"/><use xlink:href="#24" y="13.026"/></svg><svg x="4275"><use xlink:href="#a"/><use xlink:href="#2"/><use xlink:href="#13" y="2.171"/><use xlink:href="#14" y="4.342"/><use xlink:href="#15" y="6.513"/><use xlink:href="#21" y="8.684"/><use xlink:href="#23" y="10.855"/><use xlink:href="#24" y="13.026"/><use xlink:href="#13" y="15.197"/><use xlink:href="#25" y="17.368"/><use xlink:href="#26" y="19.539"/><use xlink:href="#27" y="21.71"/><use xlink:href="#17" y="23.881"/></svg><svg x="4350"><use xlink:href="#a"/><use xlink:href="#2"/><use xlink:href="#13" y="2.171"/><use xlink:href="#14" y="4.342"/><use xlink:href="#15" y="6.513"/><use xlink:href="#21" y="8.684"/><use xlink:href="#23" y="10.855"/><use xlink:href="#24" y="13.026"/><use xlink:href="#13" y="15.197"/><use xlink:href="#25" y="17.368"/><use xlink:href="#26" y="19.539"/><use xlink:href="#27" y="21.71"/><use xlink:href="#17" y="23.881"/></svg><svg x="4425"><use xlink:href="#a"/><use xlink:href="#2"/><use xlink:href="#13" y="2.171"/><use xlink:href="#14" y="4.342"/><use xlink:href="#15" y="6.513"/><use xlink:href="#21" y="8.684"/><use xlink:href="#23" y="10.855"/><use xlink:href="#24" y="13.026"/><use xlink:href="#13" y="15.197"/><use xlink:href="#28" y="17.368"/><use xlink:href="#29" y="19.539"/></svg><svg x="4500"><use xlink:href="#a"/><use xlink:href="#2"/><use xlink:href="#13" y="2.171"/><use xlink:href="#14" y="4.342"/><use xlink:href="#15" y="6.513"/><use xlink:href="#21" y="8.684"/><use xlink:href="#23" y="10.855"/><use xlink:href="#24" y="13.026"/><use xlink:href="#13" y="15.197"/><use xlink:href="#28" y="17.368"/><use xlink:href="#29" y="19.539"/></svg><svg x="4575"><use xlink:href="#a"/><use xlink:href="#2"/><use xlink:href="#13" y="2.171"/><use xlink:href="#14" y="4.342"/><use xlink:href="#15" y="6.513"/><use xlink:href="#21" y="8.684"/><use xlink:href="#23" y="10.855"/><use xlink:href="#24" y="13.026"/><use xlink:href="#13" y="15.197"/><use xlink:href="#28" y="17.368"/><use xlink:href="#29" y="19.539"/><use xlink:href="#13" y="21.71"/><use xlink:href="#30" y="23.881"/><use xlink:href="#31" y="26.052"/><use xlink:href="#32" y="28.223"/><use xlink:href="#33" y="30.394"/><use xlink:href="#17" y="32.565"/></svg><svg x="4650"><use xlink:href="#a"/><use xlink:href="#2"/><use xlink:href="#13" y="2.171"/><use xlink:href="#14" y="4.342"/><use xlink:href="#15" y="6.513"/><use xlink:href="#21" y="8.684"/><use xlink:href="#23" y="10.855"/><use xlink:href="#24" y="13.026"/><use xlink:href="#13" y="15.197"/><use xlink:href="#28" y="17.368"/><use xlink:href="#29" y="19.539"/><use xlink:href="#13" y="21.71"/><use xlink:href="#30" y="23.881"/><use xlink:href="#31" y="26.052"/><use xlink:href="#32" y="28.223"/><use xlink:href="#33" y="30.394"/><use xlink:href="#17" y="32.565"/></svg><svg x="4725"><use xlink:href="#a"/><use xlink:href="#2"/><use xlink:href="#13" y="2.171"/><use xlink:href="#14" y="4.342"/><use xlink:href="#15" y="6.513"/><use xlink:href="#21" y="8.684"/><use xlink:href="#23" y="10.855"/><use xlink:href="#24" y="13.026"/><use xlink:href="#13" y="15.197"/><use xlink:href="#28" y="17.368"/><use xlink:href="#29" y="19.539"/><use xlink:href="#13" y="21.71"/><use xlink:href="#34" y="23.881"/><use xlink:href="#35" y="26.052"/></svg><svg x="4800"><use xlink:href="#a"/><use xlink:href="#2"/><use xlink:href="#13" y="2.171"/><use xlink:href="#14" y="4.342"/><use xlink:href="#15" y="6.513"/><use xlink:href="#21" y="8.684"/><use xlink:href="#23" y="10.855"/><use xlink:href="#24" y="13.026"/><use xlink:href="#13" y="15.197"/><use xlink:href="#28" y="17.368"/><use xlink:href="#29" y="19.539"/><use xlink:href="#13" y="21.71"/><use xlink:href="#34" y="23.881"/><use xlink:href="#35" y="26.052"/></svg><svg x="4875"><use xlink:href="#a"/><use xlink:href="#13"/><use xlink:href="#14" y="2.171"/><use xlink:href="#15" y="4.342"/><use xlink:href="#21" y="6.513"/><use xlink:href="#23" y="8.684"/><use xlink:href="#24" y="10.855"/><use xlink:href="#13" y="13.026"/><use xlink:href="#28" y="15.197"/><use xlink:href="#29" y="17.368"/><use xlink:href="#13" y="19.539"/><use xlink:href="#34" y="21.71"/><use xlink:href="#35" y="23.881"/><use xlink:href="#13" y="26.052"/><use xlink:href="#36" y="28.223"/><use xlink:href="#37" y="30.394"/><use xlink:href="#17" y="32.565"/></svg><svg x="4950"><use xlink:href="#a"/><use xlink:href="#13"/><use xlink:href="#14" y="2.171"/><use xlink:href="#15" y="4.342"/><use xlink:href="#21" y="6.513"/><use xlink:href="#23" y="8.684"/><use xlink:href="#24" y="10.855"/><use xlink:href="#13" y="13.026"/><use xlink:href="#28" y="15.197"/><use xlink:href="#29" y="17.368"/><use xlink:href="#13" y="19.539"/><use xlink:href="#34" y="21.71"/><use xlink:href="#35" y="23.881"/><use xlink:href="#13" y="26.052"/><use xlink:href="#36" y="28.223"/><use xlink:href="#37" y="30.394"/><use xlink:href="#17" y="32.565"/></svg><svg x="5025"><use xlink:href="#a"/><use xlink:href="#13"/><use xlink:href="#14" y="2.171"/><use xlink:href="#15" y="4.342"/><use xlink:href="#21" y="6.513"/><use xlink:href="#23" y="8.684"/><use xlink:href="#24" y="10.855"/><use xlink:href="#13" y="13.026"/><use xlink:href="#28" y="15.197"/><use xlink:href="#29" y="17.368"/><use xlink:href="#13" y="19.539"/><use xlink:href="#34" y="21.71"/><use xlink:href="#35" y="23.881"/><use xlink:href="#13" y="26.052"/><use xlink:href="#36" y="28.223"/><text y="32.064" class="k">│</text><text x="3.006" y="32.064" class="i">○</text><text x="5.01" y="32.064" class="i">Yes</text><text x="9.018" y="32.064" class="i">/</text><text x="11.022" y="32.064" class="h">●</text><text x="13.026" y="32.064" class="i">No</text><use xlink:href="#17" y="32.565"/></svg><svg x="5100"><use xlink:href="#a"/><use xlink:href="#13"/><use xlink:href="#14" y="2.171"/><use xlink:href="#15" y="4.342"/><use xlink:href="#21" y="6.513"/><use xlink:href="#23" y="8.684"/><use xlink:href="#24" y="10.855"/><use xlink:href="#13" y="13.026"/><use xlink:href="#28" y="15.197"/><use xlink:href="#29" y="17.368"/><use xlink:href="#13" y="19.539"/><use xlink:href="#34" y="21.71"/><use xlink:href="#35" y="23.881"/><use xlink:href="#13" y="26.052"/><use xlink:href="#38" y="28.223"/><use xlink:href="#39" y="30.394"/></svg><svg x="5175"><use xlink:href="#a"/><use xlink:href="#13"/><use xlink:href="#14" y="2.171"/><use xlink:href="#15" y="4.342"/><use xlink:href="#21" y="6.513"/><use xlink:href="#23" y="8.684"/><use xlink:href="#24" y="10.855"/><use xlink:href="#13" y="13.026"/><use xlink:href="#28" y="15.197"/><use xlink:href="#29" y="17.368"/><use xlink:href="#13" y="19.539"/><use xlink:href="#34" y="21.71"/><use xlink:href="#35" y="23.881"/><use xlink:href="#13" y="26.052"/><use xlink:href="#38" y="28.223"/><use xlink:href="#39" y="30.394"/></svg><svg x="5250"><use xlink:href="#a"/><use xlink:href="#13"/><use xlink:href="#28" y="2.171"/><use xlink:href="#29" y="4.342"/><use xlink:href="#13" y="6.513"/><use xlink:href="#34" y="8.684"/><use xlink:href="#35" y="10.855"/><use xlink:href="#13" y="13.026"/><use xlink:href="#38" y="15.197"/><use xlink:href="#39" y="17.368"/><use xlink:href="#13" y="19.539"/><use xlink:href="#25" y="21.71"/><use xlink:href="#40" y="23.881"/><use xlink:href="#41" y="26.052"/><use xlink:href="#42" y="28.223"/><use xlink:href="#43" y="30.394"/><use xlink:href="#17" y="32.565"/></svg><svg x="5325"><use xlink:href="#a"/><use xlink:href="#13"/><use xlink:href="#28" y="2.171"/><use xlink:href="#29" y="4.342"/><use xlink:href="#13" y="6.513"/><use xlink:href="#34" y="8.684"/><use xlink:href="#35" y="10.855"/><use xlink:href="#13" y="13.026"/><use xlink:href="#38" y="15.197"/><use xlink:href="#39" y="17.368"/><use xlink:href="#13" y="19.539"/><use xlink:href="#25" y="21.71"/><use xlink:href="#44" y="23.881"/><use xlink:href="#45" y="26.052"/><use xlink:href="#42" y="28.223"/><use xlink:href="#43" y="30.394"/><use xlink:href="#17" y="32.565"/></svg><svg x="5400"><use xlink:href="#a"/><use xlink:href="#13"/><use xlink:href="#28" y="2.171"/><use xlink:href="#29" y="4.342"/><use xlink:href="#13" y="6.513"/><use xlink:href="#34" y="8.684"/><use xlink:href="#35" y="10.855"/><use xlink:href="#13" y="13.026"/><use xlink:href="#38" y="15.197"/><use xlink:href="#39" y="17.368"/><use xlink:href="#13" y="19.539"/><use xlink:href="#25" y="21.71"/><use xlink:href="#44" y="23.881"/><use xlink:href="#45" y="26.052"/><use xlink:href="#42" y="28.223"/><use xlink:href="#43" y="30.394"/><use xlink:href="#17" y="32.565"/></svg><svg x="5475"><use xlink:href="#a"/><use xlink:href="#13"/><use xlink:href="#28" y="2.171"/><use xlink:href="#29" y="4.342"/><use xlink:href="#13" y="6.513"/><use xlink:href="#34" y="8.684"/><use xlink:href="#35" y="10.855"/><use xlink:href="#13" y="13.026"/><use xlink:href="#38" y="15.197"/><use xlink:href="#39" y="17.368"/><use xlink:href="#13" y="19.539"/><use xlink:href="#25" y="21.71"/><use xlink:href="#44" y="23.881"/><use xlink:href="#41" y="26.052"/><use xlink:href="#46" y="28.223"/><use xlink:href="#43" y="30.394"/><use xlink:href="#17" y="32.565"/></svg><svg x="5550"><use xlink:href="#a"/><use xlink:href="#13"/><use xlink:href="#28" y="2.171"/><use xlink:href="#29" y="4.342"/><use xlink:href="#13" y="6.513"/><use xlink:href="#34" y="8.684"/><use xlink:href="#35" y="10.855"/><use xlink:href="#13" y="13.026"/><use xlink:href="#38" y="15.197"/><use xlink:href="#39" y="17.368"/><use xlink:href="#13" y="19.539"/><use xlink:href="#25" y="21.71"/><use xlink:href="#44" y="23.881"/><use xlink:href="#41" y="26.052"/><use xlink:href="#46" y="28.223"/><use xlink:href="#43" y="30.394"/><use xlink:href="#17" y="32.565"/></svg><svg x="5625"><use xlink:href="#a"/><use xlink:href="#13"/><use xlink:href="#28" y="2.171"/><use xlink:href="#29" y="4.342"/><use xlink:href="#13" y="6.513"/><use xlink:href="#34" y="8.684"/><use xlink:href="#35" y="10.855"/><use xlink:href="#13" y="13.026"/><use xlink:href="#38" y="15.197"/><use xlink:href="#39" y="17.368"/><use xlink:href="#13" y="19.539"/><use xlink:href="#25" y="21.71"/><use xlink:href="#44" y="23.881"/><use xlink:href="#41" y="26.052"/><use xlink:href="#42" y="28.223"/><use xlink:href="#47" y="30.394"/><use xlink:href="#17" y="32.565"/></svg><svg x="5700"><use xlink:href="#a"/><use xlink:href="#13"/><use xlink:href="#28" y="2.171"/><use xlink:href="#29" y="4.342"/><use xlink:href="#13" y="6.513"/><use xlink:href="#34" y="8.684"/><use xlink:href="#35" y="10.855"/><use xlink:href="#13" y="13.026"/><use xlink:href="#38" y="15.197"/><use xlink:href="#39" y="17.368"/><use xlink:href="#13" y="19.539"/><use xlink:href="#25" y="21.71"/><use xlink:href="#44" y="23.881"/><use xlink:href="#41" y="26.052"/><use xlink:href="#42" y="28.223"/><use xlink:href="#47" y="30.394"/><use xlink:href="#17" y="32.565"/></svg><svg x="5775"><use xlink:href="#a"/><use xlink:href="#13"/><use xlink:href="#28" y="2.171"/><use xlink:href="#29" y="4.342"/><use xlink:href="#13" y="6.513"/><use xlink:href="#34" y="8.684"/><use xlink:href="#35" y="10.855"/><use xlink:href="#13" y="13.026"/><use xlink:href="#38" y="15.197"/><use xlink:href="#39" y="17.368"/><use xlink:href="#13" y="19.539"/><use xlink:href="#25" y="21.71"/><use xlink:href="#40" y="23.881"/><use xlink:href="#41" y="26.052"/><use xlink:href="#42" y="28.223"/><use xlink:href="#43" y="30.394"/><use xlink:href="#17" y="32.565"/></svg><svg x="5850"><use xlink:href="#a"/><use xlink:href="#13"/><use xlink:href="#28" y="2.171"/><use xlink:href="#29" y="4.342"/><use xlink:href="#13" y="6.513"/><use xlink:href="#34" y="8.684"/><use xlink:href="#35" y="10.855"/><use xlink:href="#13" y="13.026"/><use xlink:href="#38" y="15.197"/><use xlink:href="#39" y="17.368"/><use xlink:href="#13" y="19.539"/><use xlink:href="#25" y="21.71"/><use xlink:href="#40" y="23.881"/><use xlink:href="#41" y="26.052"/><use xlink:href="#42" y="28.223"/><use xlink:href="#43" y="30.394"/><use xlink:href="#17" y="32.565"/></svg><svg x="5925"><use xlink:href="#a"/><use xlink:href="#13"/><use xlink:href="#28" y="2.171"/><use xlink:href="#29" y="4.342"/><use xlink:href="#13" y="6.513"/><use xlink:href="#34" y="8.684"/><use xlink:href="#35" y="10.855"/><use xlink:href="#13" y="13.026"/><use xlink:href="#38" y="15.197"/><use xlink:href="#39" y="17.368"/><use xlink:href="#13" y="19.539"/><use xlink:href="#25" y="21.71"/><use xlink:href="#44" y="23.881"/><use xlink:href="#45" y="26.052"/><use xlink:href="#42" y="28.223"/><use xlink:href="#43" y="30.394"/><use xlink:href="#17" y="32.565"/></svg><svg x="6000"><use xlink:href="#a"/><use xlink:href="#13"/><use xlink:href="#28" y="2.171"/><use xlink:href="#29" y="4.342"/><use xlink:href="#13" y="6.513"/><use xlink:href="#34" y="8.684"/><use xlink:href="#35" y="10.855"/><use xlink:href="#13" y="13.026"/><use xlink:href="#38" y="15.197"/><use xlink:href="#39" y="17.368"/><use xlink:href="#13" y="19.539"/><use xlink:href="#25" y="21.71"/><use xlink:href="#44" y="23.881"/><use xlink:href="#45" y="26.052"/><use xlink:href="#42" y="28.223"/><use xlink:href="#43" y="30.394"/><use xlink:href="#17" y="32.565"/></svg><svg x="6075"><use xlink:href="#a"/><use xlink:href="#13"/><use xlink:href="#28" y="2.171"/><use xlink:href="#29" y="4.342"/><use xlink:href="#13" y="6.513"/><use xlink:href="#34" y="8.684"/><use xlink:href="#35" y="10.855"/><use xlink:href="#13" y="13.026"/><use xlink:href="#38" y="15.197"/><use xlink:href="#39" y="17.368"/><use xlink:href="#13" y="19.539"/><use xlink:href="#28" y="21.71"/><use xlink:href="#48" y="23.881"/></svg><svg x="6150"><use xlink:href="#a"/><use xlink:href="#13"/><use xlink:href="#28" y="2.171"/><use xlink:href="#29" y="4.342"/><use xlink:href="#13" y="6.513"/><use xlink:href="#34" y="8.684"/><use xlink:href="#35" y="10.855"/><use xlink:href="#13" y="13.026"/><use xlink:href="#38" y="15.197"/><use xlink:href="#39" y="17.368"/><use xlink:href="#13" y="19.539"/><use xlink:href="#28" y="21.71"/><use xlink:href="#48" y="23.881"/></svg><svg x="6225"><use xlink:href="#a"/><use xlink:href="#13"/><use xlink:href="#28" y="2.171"/><use xlink:href="#29" y="4.342"/><use xlink:href="#13" y="6.513"/><use xlink:href="#34" y="8.684"/><use xlink:href="#35" y="10.855"/><use xlink:href="#13" y="13.026"/><use xlink:href="#38" y="15.197"/><use xlink:href="#39" y="17.368"/><use xlink:href="#13" y="19.539"/><use xlink:href="#28" y="21.71"/><use xlink:href="#48" y="23.881"/><use xlink:href="#13" y="26.052"/><use xlink:href="#49" y="28.223"/><use xlink:href="#16" y="30.394"/><use xlink:href="#17" y="32.565"/></svg><svg x="6300"><use xlink:href="#a"/><use xlink:href="#13"/><use xlink:href="#28" y="2.171"/><use xlink:href="#29" y="4.342"/><use xlink:href="#13" y="6.513"/><use xlink:href="#34" y="8.684"/><use xlink:href="#35" y="10.855"/><use xlink:href="#13" y="13.026"/><use xlink:href="#38" y="15.197"/><use xlink:href="#39" y="17.368"/><use xlink:href="#13" y="19.539"/><use xlink:href="#28" y="21.71"/><use xlink:href="#48" y="23.881"/><use xlink:href="#13" y="26.052"/><use xlink:href="#49" y="28.223"/><use xlink:href="#17" y="32.565"/></svg><svg x="6375"><use xlink:href="#a"/><use xlink:href="#13"/><use xlink:href="#28" y="2.171"/><use xlink:href="#29" y="4.342"/><use xlink:href="#13" y="6.513"/><use xlink:href="#34" y="8.684"/><use xlink:href="#35" y="10.855"/><use xlink:href="#13" y="13.026"/><use xlink:href="#38" y="15.197"/><use xlink:href="#39" y="17.368"/><use xlink:href="#13" y="19.539"/><use xlink:href="#28" y="21.71"/><use xlink:href="#48" y="23.881"/><use xlink:href="#13" y="26.052"/><use xlink:href="#49" y="28.223"/><use xlink:href="#50" y="30.394"/><use xlink:href="#17" y="32.565"/></svg><svg x="6450"><use xlink:href="#a"/><use xlink:href="#13"/><use xlink:href="#28" y="2.171"/><use xlink:href="#29" y="4.342"/><use xlink:href="#13" y="6.513"/><use xlink:href="#34" y="8.684"/><use xlink:href="#35" y="10.855"/><use xlink:href="#13" y="13.026"/><use xlink:href="#38" y="15.197"/><use xlink:href="#39" y="17.368"/><use xlink:href="#13" y="19.539"/><use xlink:href="#28" y="21.71"/><use xlink:href="#48" y="23.881"/><use xlink:href="#13" y="26.052"/><use xlink:href="#49" y="28.223"/><use xlink:href="#50" y="30.394"/><use xlink:href="#17" y="32.565"/></svg><svg x="6525"><use xlink:href="#a"/><use xlink:href="#13"/><use xlink:href="#28" y="2.171"/><use xlink:href="#29" y="4.342"/><use xlink:href="#13" y="6.513"/><use xlink:href="#34" y="8.684"/><use xlink:href="#35" y="10.855"/><use xlink:href="#13" y="13.026"/><use xlink:href="#38" y="15.197"/><use xlink:href="#39" y="17.368"/><use xlink:href="#13" y="19.539"/><use xlink:href="#28" y="21.71"/><use xlink:href="#48" y="23.881"/><use xlink:href="#13" y="26.052"/><use xlink:href="#49" y="28.223"/><use xlink:href="#51" y="30.394"/><use xlink:href="#17" y="32.565"/></svg><svg x="6600"><use xlink:href="#a"/><use xlink:href="#13"/><use xlink:href="#28" y="2.171"/><use xlink:href="#29" y="4.342"/><use xlink:href="#13" y="6.513"/><use xlink:href="#34" y="8.684"/><use xlink:href="#35" y="10.855"/><use xlink:href="#13" y="13.026"/><use xlink:href="#38" y="15.197"/><use xlink:href="#39" y="17.368"/><use xlink:href="#13" y="19.539"/><use xlink:href="#28" y="21.71"/><use xlink:href="#48" y="23.881"/><use xlink:href="#13" y="26.052"/><use xlink:href="#49" y="28.223"/><use xlink:href="#51" y="30.394"/><use xlink:href="#17" y="32.565"/></svg><svg x="6675"><use xlink:href="#a"/><use xlink:href="#13"/><use xlink:href="#28" y="2.171"/><use xlink:href="#29" y="4.342"/><use xlink:href="#13" y="6.513"/><use xlink:href="#34" y="8.684"/><use xlink:href="#35" y="10.855"/><use xlink:href="#13" y="13.026"/><use xlink:href="#38" y="15.197"/><use xlink:href="#39" y="17.368"/><use xlink:href="#13" y="19.539"/><use xlink:href="#28" y="21.71"/><use xlink:href="#48" y="23.881"/><use xlink:href="#13" y="26.052"/><use xlink:href="#49" y="28.223"/><text y="32.064" class="k">│</text><text x="3.006" y="32.064" class="i">@e/█</text><use xlink:href="#17" y="32.565"/></svg><svg x="6750"><use xlink:href="#a"/><use xlink:href="#13"/><use xlink:href="#28" y="2.171"/><use xlink:href="#29" y="4.342"/><use xlink:href="#13" y="6.513"/><use xlink:href="#34" y="8.684"/><use xlink:href="#35" y="10.855"/><use xlink:href="#13" y="13.026"/><use xlink:href="#38" y="15.197"/><use xlink:href="#39" y="17.368"/><use xlink:href="#13" y="19.539"/><use xlink:href="#28" y="21.71"/><use xlink:href="#48" y="23.881"/><use xlink:href="#13" y="26.052"/><use xlink:href="#49" y="28.223"/><use xlink:href="#17" y="32.565"/></svg><svg x="6825"><use xlink:href="#a"/><use xlink:href="#13"/><use xlink:href="#28" y="2.171"/><use xlink:href="#29" y="4.342"/><use xlink:href="#13" y="6.513"/><use xlink:href="#34" y="8.684"/><use xlink:href="#35" y="10.855"/><use xlink:href="#13" y="13.026"/><use xlink:href="#38" y="15.197"/><use xlink:href="#39" y="17.368"/><use xlink:href="#13" y="19.539"/><use xlink:href="#28" y="21.71"/><use xlink:href="#48" y="23.881"/><use xlink:href="#13" y="26.052"/><use xlink:href="#49" y="28.223"/><use xlink:href="#52" y="30.394"/><use xlink:href="#17" y="32.565"/></svg><svg x="6900"><use xlink:href="#a"/><use xlink:href="#13"/><use xlink:href="#28" y="2.171"/><use xlink:href="#29" y="4.342"/><use xlink:href="#13" y="6.513"/><use xlink:href="#34" y="8.684"/><use xlink:href="#35" y="10.855"/><use xlink:href="#13" y="13.026"/><use xlink:href="#38" y="15.197"/><use xlink:href="#39" y="17.368"/><use xlink:href="#13" y="19.539"/><use xlink:href="#28" y="21.71"/><use xlink:href="#48" y="23.881"/><use xlink:href="#13" y="26.052"/><use xlink:href="#49" y="28.223"/><use xlink:href="#52" y="30.394"/><use xlink:href="#17" y="32.565"/></svg><svg x="6975"><use xlink:href="#a"/><use xlink:href="#13"/><use xlink:href="#28" y="2.171"/><use xlink:href="#29" y="4.342"/><use xlink:href="#13" y="6.513"/><use xlink:href="#34" y="8.684"/><use xlink:href="#35" y="10.855"/><use xlink:href="#13" y="13.026"/><use xlink:href="#38" y="15.197"/><use xlink:href="#39" y="17.368"/><use xlink:href="#13" y="19.539"/><use xlink:href="#28" y="21.71"/><use xlink:href="#48" y="23.881"/><use xlink:href="#13" y="26.052"/><use xlink:href="#49" y="28.223"/><use xlink:href="#53" y="30.394"/><use xlink:href="#17" y="32.565"/></svg><svg x="7050"><use xlink:href="#a"/><use xlink:href="#13"/><use xlink:href="#28" y="2.171"/><use xlink:href="#29" y="4.342"/><use xlink:href="#13" y="6.513"/><use xlink:href="#34" y="8.684"/><use xlink:href="#35" y="10.855"/><use xlink:href="#13" y="13.026"/><use xlink:href="#38" y="15.197"/><use xlink:href="#39" y="17.368"/><use xlink:href="#13" y="19.539"/><use xlink:href="#28" y="21.71"/><use xlink:href="#48" y="23.881"/><use xlink:href="#13" y="26.052"/><use xlink:href="#49" y="28.223"/><use xlink:href="#53" y="30.394"/><use xlink:href="#17" y="32.565"/></svg><svg x="7125"><use xlink:href="#a"/><use xlink:href="#13"/><use xlink:href="#28" y="2.171"/><use xlink:href="#29" y="4.342"/><use xlink:href="#13" y="6.513"/><use xlink:href="#34" y="8.684"/><use xlink:href="#35" y="10.855"/><use xlink:href="#13" y="13.026"/><use xlink:href="#38" y="15.197"/><use xlink:href="#39" y="17.368"/><use xlink:href="#13" y="19.539"/><use xlink:href="#28" y="21.71"/><use xlink:href="#48" y="23.881"/><use xlink:href="#13" y="26.052"/><use xlink:href="#49" y="28.223"/><use xlink:href="#54" y="30.394"/><use xlink:href="#17" y="32.565"/></svg><svg x="7200"><use xlink:href="#a"/><use xlink:href="#13"/><use xlink:href="#28" y="2.171"/><use xlink:href="#29" y="4.342"/><use xlink:href="#13" y="6.513"/><use xlink:href="#34" y="8.684"/><use xlink:href="#35" y="10.855"/><use xlink:href="#13" y="13.026"/><use xlink:href="#38" y="15.197"/><use xlink:href="#39" y="17.368"/><use xlink:href="#13" y="19.539"/><use xlink:href="#28" y="21.71"/><use xlink:href="#48" y="23.881"/><use xlink:href="#13" y="26.052"/><use xlink:href="#49" y="28.223"/><use xlink:href="#54" y="30.394"/><use xlink:href="#17" y="32.565"/></svg><svg x="7275"><use xlink:href="#a"/><use xlink:href="#13"/><use xlink:href="#28" y="2.171"/><use xlink:href="#29" y="4.342"/><use xlink:href="#13" y="6.513"/><use xlink:href="#34" y="8.684"/><use xlink:href="#35" y="10.855"/><use xlink:href="#13" y="13.026"/><use xlink:href="#38" y="15.197"/><use xlink:href="#39" y="17.368"/><use xlink:href="#13" y="19.539"/><use xlink:href="#28" y="21.71"/><use xlink:href="#48" y="23.881"/><use xlink:href="#13" y="26.052"/><use xlink:href="#55" y="28.223"/><use xlink:href="#56" y="30.394"/></svg><svg x="7350"><use xlink:href="#a"/><use xlink:href="#13"/><use xlink:href="#28" y="2.171"/><use xlink:href="#29" y="4.342"/><use xlink:href="#13" y="6.513"/><use xlink:href="#34" y="8.684"/><use xlink:href="#35" y="10.855"/><use xlink:href="#13" y="13.026"/><use xlink:href="#38" y="15.197"/><use xlink:href="#39" y="17.368"/><use xlink:href="#13" y="19.539"/><use xlink:href="#28" y="21.71"/><use xlink:href="#48" y="23.881"/><use xlink:href="#13" y="26.052"/><use xlink:href="#55" y="28.223"/><use xlink:href="#56" y="30.394"/></svg><svg x="7425"><use xlink:href="#a"/><use xlink:href="#13"/><use xlink:href="#28" y="2.171"/><use xlink:href="#29" y="4.342"/><use xlink:href="#13" y="6.513"/><use xlink:href="#34" y="8.684"/><use xlink:href="#35" y="10.855"/><use xlink:href="#13" y="13.026"/><use xlink:href="#38" y="15.197"/><use xlink:href="#39" y="17.368"/><use xlink:href="#13" y="19.539"/><use xlink:href="#28" y="21.71"/><use xlink:href="#48" y="23.881"/><use xlink:href="#13" y="26.052"/><use xlink:href="#55" y="28.223"/><use xlink:href="#56" y="30.394"/></svg><svg x="7500"><use xlink:href="#a"/><use xlink:href="#28"/><use xlink:href="#29" y="2.171"/><use xlink:href="#13" y="4.342"/><use xlink:href="#34" y="6.513"/><use xlink:href="#35" y="8.684"/><use xlink:href="#13" y="10.855"/><use xlink:href="#38" y="13.026"/><use xlink:href="#39" y="15.197"/><use xlink:href="#13" y="17.368"/><use xlink:href="#28" y="19.539"/><use xlink:href="#48" y="21.71"/><use xlink:href="#13" y="23.881"/><use xlink:href="#55" y="26.052"/><use xlink:href="#56" y="28.223"/><use xlink:href="#57" y="32.565"/></svg><svg x="7575"><use xlink:href="#a"/><use xlink:href="#38"/><use xlink:href="#39" y="2.171"/><use xlink:href="#13" y="4.342"/><use xlink:href="#28" y="6.513"/><use xlink:href="#48" y="8.684"/><use xlink:href="#13" y="10.855"/><use xlink:href="#55" y="13.026"/><use xlink:href="#56" y="15.197"/><use xlink:href="#57" y="19.539"/><use xlink:href="#58" y="23.881"/><use xlink:href="#59" y="28.223"/><use xlink:href="#60" y="30.394"/></svg><svg x="7650"><use xlink:href="#a"/><use xlink:href="#38"/><use xlink:href="#39" y="2.171"/><use xlink:href="#13" y="4.342"/><use xlink:href="#28" y="6.513"/><use xlink:href="#48" y="8.684"/><use xlink:href="#13" y="10.855"/><use xlink:href="#55" y="13.026"/><use xlink:href="#56" y="15.197"/><use xlink:href="#57" y="19.539"/><use xlink:href="#58" y="23.881"/><use xlink:href="#59" y="28.223"/><use xlink:href="#60" y="30.394"/><use xlink:href="#3" y="34.736"/></svg><svg x="7725"><use xlink:href="#a"/><use xlink:href="#38"/><use xlink:href="#39" y="2.171"/><use xlink:href="#13" y="4.342"/><use xlink:href="#28" y="6.513"/><use xlink:href="#48" y="8.684"/><use xlink:href="#13" y="10.855"/><use xlink:href="#55" y="13.026"/><use xlink:href="#56" y="15.197"/><use xlink:href="#57" y="19.539"/><use xlink:href="#58" y="23.881"/><use xlink:href="#59" y="28.223"/><use xlink:href="#60" y="30.394"/><use xlink:href="#3" y="34.736"/></svg><svg x="7800"><use xlink:href="#a"/><use xlink:href="#38"/><use xlink:href="#39" y="2.171"/><use xlink:href="#13" y="4.342"/><use xlink:href="#28" y="6.513"/><use xlink:href="#48" y="8.684"/><use xlink:href="#13" y="10.855"/><use xlink:href="#55" y="13.026"/><use xlink:href="#56" y="15.197"/><use xlink:href="#57" y="19.539"/><use xlink:href="#58" y="23.881"/><use xlink:href="#59" y="28.223"/><use xlink:href="#60" y="30.394"/></svg><svg x="7875"><use xlink:href="#a"/><use xlink:href="#38"/><use xlink:href="#39" y="2.171"/><use xlink:href="#13" y="4.342"/><use xlink:href="#28" y="6.513"/><use xlink:href="#48" y="8.684"/><use xlink:href="#13" y="10.855"/><use xlink:href="#55" y="13.026"/><use xlink:href="#56" y="15.197"/><use xlink:href="#57" y="19.539"/><use xlink:href="#58" y="23.881"/><use xlink:href="#59" y="28.223"/><use xlink:href="#60" y="30.394"/><use xlink:href="#1" y="34.736"/></svg><svg x="7950"><use xlink:href="#a"/><use xlink:href="#38"/><use xlink:href="#39" y="2.171"/><use xlink:href="#13" y="4.342"/><use xlink:href="#28" y="6.513"/><use xlink:href="#48" y="8.684"/><use xlink:href="#13" y="10.855"/><use xlink:href="#55" y="13.026"/><use xlink:href="#56" y="15.197"/><use xlink:href="#57" y="19.539"/><use xlink:href="#58" y="23.881"/><use xlink:href="#59" y="28.223"/><use xlink:href="#60" y="30.394"/><use xlink:href="#1" y="34.736"/></svg><svg x="8025"><use xlink:href="#a"/><use xlink:href="#39"/><use xlink:href="#13" y="2.171"/><use xlink:href="#28" y="4.342"/><use xlink:href="#48" y="6.513"/><use xlink:href="#13" y="8.684"/><use xlink:href="#55" y="10.855"/><use xlink:href="#56" y="13.026"/><use xlink:href="#57" y="17.368"/><use xlink:href="#58" y="21.71"/><use xlink:href="#59" y="26.052"/><use xlink:href="#60" y="28.223"/><use xlink:href="#1" y="32.565"/></svg></svg></g></g></svg></svg>