<svg xmlns="http://www.w3.org/2000/svg" xmlns:xlink="http://www.w3.org/1999/xlink" width="790" height="407.36"><rect width="790" height="407.36" rx="5" ry="5" class="a"/><svg y="0%" x="0%"><circle cx="20" cy="20" r="6" fill="#ff5f58"/><circle cx="40" cy="20" r="6" fill="#ffbd2e"/><circle cx="60" cy="20" r="6" fill="#18c132"/></svg><svg height="347.36" viewBox="0 0 75 34.736" width="750" x="15" xmlns="http://www.w3.org/2000/svg" xmlns:xlink="http://www.w3.org/1999/xlink" y="50"><style>@keyframes r{0%{transform:translateX(0)}2.1%{transform:translateX(-150px)}4.75%{transform:translateX(-225px)}5.27%{transform:translateX(-300px)}6.03%{transform:translateX(-375px)}8.22%{transform:translateX(-450px)}9.99%{transform:translateX(-525px)}10%{transform:translateX(-600px)}11.32%{transform:translateX(-750px)}11.68%{transform:translateX(-825px)}12.03%{transform:translateX(-900px)}12.39%{transform:translateX(-975px)}12.75%{transform:translateX(-1125px)}13.1%{transform:translateX(-1200px)}13.47%{transform:translateX(-1275px)}13.82%{transform:translateX(-1350px)}14.18%{transform:translateX(-1500px)}14.54%{transform:translateX(-1575px)}14.9%{transform:translateX(-1650px)}15.25%{transform:translateX(-1725px)}15.61%{transform:translateX(-1800px)}15.97%{transform:translateX(-1875px)}16.32%{transform:translateX(-1950px)}16.68%{transform:translateX(-2025px)}17.04%{transform:translateX(-2100px)}17.39%{transform:translateX(-2175px)}17.76%{transform:translateX(-2250px)}18.12%{transform:translateX(-2325px)}18.48%{transform:translateX(-2400px)}18.84%{transform:translateX(-2475px)}19.2%{transform:translateX(-2550px)}19.56%{transform:translateX(-2625px)}19.92%{transform:translateX(-2700px)}20.29%{transform:translateX(-2775px)}20.65%{transform:translateX(-2850px)}21.01%{transform:translateX(-2925px)}21.37%{transform:translateX(-3000px)}21.73%{transform:translateX(-3075px)}22.09%{transform:translateX(-3150px)}22.44%{transform:translateX(-3225px)}22.8%{transform:translateX(-3300px)}23.16%{transform:translateX(-3450px)}32.82%{transform:translateX(-3600px)}42.55%{transform:translateX(-3750px)}43.45%{transform:translateX(-3975px)}44.1%{transform:translateX(-4200px)}45.3%{transform:translateX(-4500px)}45.31%{transform:translateX(-4575px)}49.31%{transform:translateX(-4650px)}49.32%{transform:translateX(-4875px)}49.33%{transform:translateX(-4950px)}53.89%{transform:translateX(-5175px)}53.9%{transform:translateX(-5250px)}53.92%{transform:translateX(-5325px)}60.34%{transform:translateX(-5625px)}60.38%{transform:translateX(-5700px)}65.82%{transform:translateX(-5775px)}65.83%{transform:translateX(-5925px)}65.86%{transform:translateX(-6000px)}69.23%{transform:translateX(-6150px)}71.52%{transform:translateX(-6450px)}85.92%{transform:translateX(-6600px)}85.94%{transform:translateX(-6750px)}86.12%{transform:translateX(-6900px)}to{transform:translateX(-6975px)}}.a{fill:#282d35}.f,.g,.h,.i,.j{fill:#a8cc8c;font-weight:700;white-space:pre}.g,.h,.i,.j{fill:#66c2cd}.h,.i,.j{fill:#71bef2}.i,.j{fill:#e88388}.j{fill:#dbab79}.k,.l,.m,.n{fill:#a8cc8c;white-space:pre}.l,.m,.n{fill:#b9c0cb}.m,.n{fill:#6f7783}.n{fill:#66c2cd}</style><g font-family="Monaco,Consolas,Menlo,'Bitstream Vera Sans Mono','Powerline Symbols',monospace" font-size="1.67"><defs><symbol id="1"><text y="1.67" class="f">➜</text><text x="3.006" y="1.67" class="g">CODE</text><text x="8.016" y="1.67" class="h">git:(</text><text x="13.026" y="1.67" class="i">main</text><text x="17.034" y="1.67" class="h">)</text><text x="19.038" y="1.67" class="j">✗</text></symbol><symbol id="2"><text y="1.67" class="f">➜</text><text x="3.006" y="1.67" class="g">CODE</text><text x="8.016" y="1.67" class="h">git:(</text><text x="13.026" y="1.67" class="i">main</text><text x="17.034" y="1.67" class="h">)</text><text x="19.038" y="1.67" class="j">✗</text><text x="21.042" y="1.67" class="k">npx</text><text x="25.05" y="1.67" class="l">@e.fe/create-app@latest</text></symbol><symbol id="3"><text y="1.67" class="l">⠙</text></symbol><symbol id="4"><text y="1.67" class="l">⠹</text></symbol><symbol id="5"><text y="1.67" class="l">⠸</text></symbol><symbol id="6"><text y="1.67" class="l">⠼</text></symbol><symbol id="7"><text y="1.67" class="l">⠴</text></symbol><symbol id="8"><text y="1.67" class="l">⠦</text></symbol><symbol id="9"><text y="1.67" class="l">⠧</text></symbol><symbol id="10"><text y="1.67" class="l">⠇</text></symbol><symbol id="11"><text y="1.67" class="l">⠏</text></symbol><symbol id="12"><text y="1.67" class="l">⠋</text></symbol><symbol id="13"><text y="1.67" class="m">│</text></symbol><symbol id="14"><text y="1.67" class="n">◆</text><text x="3.006" y="1.67" class="l">Enter</text><text x="9.018" y="1.67" class="l">project</text><text x="17.034" y="1.67" class="l">name</text><text x="22.044" y="1.67" class="m">(lowercase</text><text x="33.066" y="1.67" class="m">letters,</text><text x="42.084" y="1.67" class="m">numbers,</text><text x="51.102" y="1.67" class="m">connected</text><text x="61.122" y="1.67" class="m">by</text><text x="64.128" y="1.67" class="m">hyphens)</text><text x="72.144" y="1.67" class="l">:</text></symbol><symbol id="15"><text y="1.67" class="n">│</text><path fill="#b9c0cb" d="M3.006 0h1v2.171h-1z"/><text x="3.006" y="1.67" style="white-space:pre" fill="#282d35">_</text></symbol><symbol id="16"><text y="1.67" class="n">└</text></symbol><symbol id="17"><text y="1.67" class="n">│</text><text x="3.006" y="1.67" class="l">x█</text></symbol><symbol id="18"><text y="1.67" class="n">│</text><text x="3.006" y="1.67" class="l">xx█</text></symbol><symbol id="19"><text y="1.67" class="n">│</text><text x="3.006" y="1.67" class="l">xxx█</text></symbol><symbol id="20"><text y="1.67" class="k">◇</text><text x="3.006" y="1.67" class="l">Enter</text><text x="9.018" y="1.67" class="l">project</text><text x="17.034" y="1.67" class="l">name</text><text x="22.044" y="1.67" class="m">(lowercase</text><text x="33.066" y="1.67" class="m">letters,</text><text x="42.084" y="1.67" class="m">numbers,</text><text x="51.102" y="1.67" class="m">connected</text><text x="61.122" y="1.67" class="m">by</text><text x="64.128" y="1.67" class="m">hyphens)</text><text x="72.144" y="1.67" class="l">:</text></symbol><symbol id="21"><text y="1.67" class="m">│</text><text x="3.006" y="1.67" class="l">xxx</text></symbol><symbol id="22"><text y="1.67" class="n">◆</text><text x="3.006" y="1.67" class="l">Enter</text><text x="9.018" y="1.67" class="l">project</text><text x="17.034" y="1.67" class="l">description</text><text x="29.058" y="1.67" class="m">(optional,</text><text x="40.08" y="1.67" class="m">press</text><text x="46.092" y="1.67" class="m">Enter</text><text x="52.104" y="1.67" class="m">to</text><text x="55.11" y="1.67" class="m">skip)</text><text x="60.12" y="1.67" class="l">:</text></symbol><symbol id="23"><text y="1.67" class="k">◇</text><text x="3.006" y="1.67" class="l">Enter</text><text x="9.018" y="1.67" class="l">project</text><text x="17.034" y="1.67" class="l">description</text><text x="29.058" y="1.67" class="m">(optional,</text><text x="40.08" y="1.67" class="m">press</text><text x="46.092" y="1.67" class="m">Enter</text><text x="52.104" y="1.67" class="m">to</text><text x="55.11" y="1.67" class="m">skip)</text><text x="60.12" y="1.67" class="l">:</text></symbol><symbol id="24"><text y="1.67" class="m">│</text><text x="3.006" y="1.67" class="l">undefined</text></symbol><symbol id="25"><text y="1.67" class="n">◆</text><text x="3.006" y="1.67" class="l">Please</text><text x="10.02" y="1.67" class="l">select:</text></symbol><symbol id="26"><text y="1.67" class="k">◇</text><text x="3.006" y="1.67" class="l">Please</text><text x="10.02" y="1.67" class="l">select:</text></symbol><symbol id="27"><text y="1.67" class="m">│</text><text x="3.006" y="1.67" class="l">Library（SDK）</text></symbol><symbol id="28"><text y="1.67" class="n">│</text><text x="3.006" y="1.67" class="k">●</text><text x="5.01" y="1.67" class="l">unbuild</text><text x="13.026" y="1.67" class="l">(https://github.com/unjs/unbuild)</text></symbol><symbol id="29"><text y="1.67" class="n">│</text><text x="3.006" y="1.67" class="l">○</text><text x="5.01" y="1.67" class="l">vite</text></symbol><symbol id="30"><text y="1.67" class="n">│</text><text x="3.006" y="1.67" class="l">○</text><text x="5.01" y="1.67" class="l">tsup</text></symbol><symbol id="31"><text y="1.67" class="n">│</text><text x="3.006" y="1.67" class="l">○</text><text x="5.01" y="1.67" class="l">rollup</text></symbol><symbol id="32"><text y="1.67" class="m">│</text><text x="3.006" y="1.67" class="l">unbuild</text></symbol><symbol id="33"><text y="1.67" class="n">◆</text><text x="3.006" y="1.67" class="l">Select</text><text x="10.02" y="1.67" class="l">package</text><text x="18.036" y="1.67" class="l">manager:</text></symbol><symbol id="34"><text y="1.67" class="n">│</text><text x="3.006" y="1.67" class="k">●</text><text x="5.01" y="1.67" class="l">pnpm</text></symbol><symbol id="35"><text y="1.67" class="n">│</text><text x="3.006" y="1.67" class="l">○</text><text x="5.01" y="1.67" class="l">npm</text></symbol><symbol id="36"><text y="1.67" class="n">│</text><text x="3.006" y="1.67" class="l">○</text><text x="5.01" y="1.67" class="l">yarn</text></symbol><symbol id="37"><text y="1.67" class="k">◇</text><text x="3.006" y="1.67" class="l">Select</text><text x="10.02" y="1.67" class="l">package</text><text x="18.036" y="1.67" class="l">manager:</text></symbol><symbol id="38"><text y="1.67" class="m">│</text><text x="3.006" y="1.67" class="l">pnpm</text></symbol><symbol id="39"><text y="1.67" class="n">◆</text><text x="3.006" y="1.67" class="l">Do</text><text x="6.012" y="1.67" class="l">you</text><text x="10.02" y="1.67" class="l">want</text><text x="15.03" y="1.67" class="l">to</text><text x="18.036" y="1.67" class="l">install</text><text x="26.052" y="1.67" class="l">now?</text></symbol><symbol id="40"><text y="1.67" class="n">│</text><text x="3.006" y="1.67" class="k">●</text><text x="5.01" y="1.67" class="l">Yes</text><text x="9.018" y="1.67" class="l">/</text><text x="11.022" y="1.67" class="l">○</text><text x="13.026" y="1.67" class="l">No</text></symbol><symbol id="41"><text y="1.67" class="n">│</text><text x="3.006" y="1.67" class="l">○</text><text x="5.01" y="1.67" class="l">Yes</text><text x="9.018" y="1.67" class="l">/</text><text x="11.022" y="1.67" class="k">●</text><text x="13.026" y="1.67" class="l">No</text></symbol><symbol id="42"><text y="1.67" class="k">◇</text><text x="3.006" y="1.67" class="l">Do</text><text x="6.012" y="1.67" class="l">you</text><text x="10.02" y="1.67" class="l">want</text><text x="15.03" y="1.67" class="l">to</text><text x="18.036" y="1.67" class="l">install</text><text x="26.052" y="1.67" class="l">now?</text></symbol><symbol id="43"><text y="1.67" class="m">│</text><text x="3.006" y="1.67" class="l">No</text></symbol><symbol id="44"><text y="1.67" class="l">Success!</text><text x="9.018" y="1.67" class="l">Created</text><text x="17.034" y="1.67" class="k">xxx</text><text x="21.042" y="1.67" class="l">at</text><text x="24.048" y="1.67" class="k">/CODE/xxx</text></symbol><symbol id="45"><text y="1.67" class="l">Now</text><text x="4.008" y="1.67" class="l">you</text><text x="8.016" y="1.67" class="l">can</text><text x="12.024" y="1.67" class="l">start</text><text x="18.036" y="1.67" class="l">the</text><text x="22.044" y="1.67" class="l">development:</text></symbol><symbol id="46"><text x="2.004" y="1.67" class="n">cd</text><text x="5.01" y="1.67" class="k">xxx</text></symbol><symbol id="47"><text x="2.004" y="1.67" class="n">npm</text><text x="6.012" y="1.67" class="n">start</text></symbol><symbol id="a"><path fill="transparent" d="M0 0h75v17H0z"/></symbol></defs><path class="a" d="M0 0h75v34.736H0z"/><g style="animation-duration:22.418058s;animation-iteration-count:infinite;animation-name:r;animation-timing-function:steps(1,end)"><svg width="7050"><svg><use xlink:href="#a"/></svg><svg x="75"><use xlink:href="#a"/><use xlink:href="#1"/></svg><svg x="150"><use xlink:href="#a"/><use xlink:href="#1"/></svg><svg x="225"><use xlink:href="#a"/><text y="1.67" class="f">➜</text><text x="3.006" y="1.67" class="g">CODE</text><text x="8.016" y="1.67" class="h">git:(</text><text x="13.026" y="1.67" class="i">main</text><text x="17.034" y="1.67" class="h">)</text><text x="19.038" y="1.67" class="j">✗</text><text x="21.042" y="1.67" style="white-space:pre" fill="#b9c0cb" text-decoration="underline">n</text><text x="22.044" y="1.67" class="m">px</text><text x="25.05" y="1.67" class="m">@e.fe/create-app@latest</text></svg><svg x="300"><use xlink:href="#a"/><text y="1.67" class="f">➜</text><text x="3.006" y="1.67" class="g">CODE</text><text x="8.016" y="1.67" class="h">git:(</text><text x="13.026" y="1.67" class="i">main</text><text x="17.034" y="1.67" class="h">)</text><text x="19.038" y="1.67" class="j">✗</text><text x="21.042" y="1.67" class="i">np</text><text x="23.046" y="1.67" class="m">x</text><text x="25.05" y="1.67" class="m">@e.fe/create-app@latest</text></svg><svg x="375"><use xlink:href="#a"/><text y="1.67" class="f">➜</text><text x="3.006" y="1.67" class="g">CODE</text><text x="8.016" y="1.67" class="h">git:(</text><text x="13.026" y="1.67" class="i">main</text><text x="17.034" y="1.67" class="h">)</text><text x="19.038" y="1.67" class="j">✗</text><text x="21.042" y="1.67" class="k">npx</text><text x="25.05" y="1.67" class="m">@e.fe/create-app@latest</text></svg><svg x="450"><use xlink:href="#a"/><use xlink:href="#2"/></svg><svg x="525"><use xlink:href="#a"/><use xlink:href="#2"/></svg><svg x="600"><use xlink:href="#a"/><use xlink:href="#2"/></svg><svg x="675"><use xlink:href="#a"/><use xlink:href="#2"/></svg><svg x="750"><use xlink:href="#a"/><use xlink:href="#2"/><use xlink:href="#3" y="2.171"/></svg><svg x="825"><use xlink:href="#a"/><use xlink:href="#2"/><use xlink:href="#4" y="2.171"/></svg><svg x="900"><use xlink:href="#a"/><use xlink:href="#2"/><use xlink:href="#5" y="2.171"/></svg><svg x="975"><use xlink:href="#a"/><use xlink:href="#2"/><use xlink:href="#6" y="2.171"/></svg><svg x="1050"><use xlink:href="#a"/><use xlink:href="#2"/><use xlink:href="#6" y="2.171"/></svg><svg x="1125"><use xlink:href="#a"/><use xlink:href="#2"/><use xlink:href="#7" y="2.171"/></svg><svg x="1200"><use xlink:href="#a"/><use xlink:href="#2"/><use xlink:href="#8" y="2.171"/></svg><svg x="1275"><use xlink:href="#a"/><use xlink:href="#2"/><use xlink:href="#9" y="2.171"/></svg><svg x="1350"><use xlink:href="#a"/><use xlink:href="#2"/><use xlink:href="#10" y="2.171"/></svg><svg x="1425"><use xlink:href="#a"/><use xlink:href="#2"/><use xlink:href="#10" y="2.171"/></svg><svg x="1500"><use xlink:href="#a"/><use xlink:href="#2"/><use xlink:href="#11" y="2.171"/></svg><svg x="1575"><use xlink:href="#a"/><use xlink:href="#2"/><use xlink:href="#12" y="2.171"/></svg><svg x="1650"><use xlink:href="#a"/><use xlink:href="#2"/><use xlink:href="#3" y="2.171"/></svg><svg x="1725"><use xlink:href="#a"/><use xlink:href="#2"/><use xlink:href="#4" y="2.171"/></svg><svg x="1800"><use xlink:href="#a"/><use xlink:href="#2"/><use xlink:href="#5" y="2.171"/></svg><svg x="1875"><use xlink:href="#a"/><use xlink:href="#2"/><use xlink:href="#6" y="2.171"/></svg><svg x="1950"><use xlink:href="#a"/><use xlink:href="#2"/><use xlink:href="#7" y="2.171"/></svg><svg x="2025"><use xlink:href="#a"/><use xlink:href="#2"/><use xlink:href="#8" y="2.171"/></svg><svg x="2100"><use xlink:href="#a"/><use xlink:href="#2"/><use xlink:href="#9" y="2.171"/></svg><svg x="2175"><use xlink:href="#a"/><use xlink:href="#2"/><use xlink:href="#10" y="2.171"/></svg><svg x="2250"><use xlink:href="#a"/><use xlink:href="#2"/><use xlink:href="#11" y="2.171"/></svg><svg x="2325"><use xlink:href="#a"/><use xlink:href="#2"/><use xlink:href="#12" y="2.171"/></svg><svg x="2400"><use xlink:href="#a"/><use xlink:href="#2"/><use xlink:href="#3" y="2.171"/></svg><svg x="2475"><use xlink:href="#a"/><use xlink:href="#2"/><use xlink:href="#4" y="2.171"/></svg><svg x="2550"><use xlink:href="#a"/><use xlink:href="#2"/><use xlink:href="#5" y="2.171"/></svg><svg x="2625"><use xlink:href="#a"/><use xlink:href="#2"/><use xlink:href="#6" y="2.171"/></svg><svg x="2700"><use xlink:href="#a"/><use xlink:href="#2"/><use xlink:href="#7" y="2.171"/></svg><svg x="2775"><use xlink:href="#a"/><use xlink:href="#2"/><use xlink:href="#8" y="2.171"/></svg><svg x="2850"><use xlink:href="#a"/><use xlink:href="#2"/><use xlink:href="#9" y="2.171"/></svg><svg x="2925"><use xlink:href="#a"/><use xlink:href="#2"/><use xlink:href="#10" y="2.171"/></svg><svg x="3000"><use xlink:href="#a"/><use xlink:href="#2"/><use xlink:href="#11" y="2.171"/></svg><svg x="3075"><use xlink:href="#a"/><use xlink:href="#2"/><use xlink:href="#12" y="2.171"/></svg><svg x="3150"><use xlink:href="#a"/><use xlink:href="#2"/><use xlink:href="#3" y="2.171"/></svg><svg x="3225"><use xlink:href="#a"/><use xlink:href="#2"/><use xlink:href="#4" y="2.171"/></svg><svg x="3300"><use xlink:href="#a"/><use xlink:href="#2"/><use xlink:href="#5" y="2.171"/></svg><svg x="3375"><use xlink:href="#a"/><use xlink:href="#2"/><use xlink:href="#6" y="2.171"/></svg><svg x="3450"><use xlink:href="#a"/><use xlink:href="#2"/></svg><svg x="3525"><use xlink:href="#a"/><use xlink:href="#2"/></svg><svg x="3600"><use xlink:href="#a"/><use xlink:href="#2"/><use xlink:href="#13" y="2.171"/><use xlink:href="#14" y="4.342"/><use xlink:href="#15" y="6.513"/><use xlink:href="#16" y="8.684"/></svg><svg x="3675"><use xlink:href="#a"/><use xlink:href="#2"/><use xlink:href="#13" y="2.171"/><use xlink:href="#14" y="4.342"/><use xlink:href="#15" y="6.513"/><use xlink:href="#16" y="8.684"/></svg><svg x="3750"><use xlink:href="#a"/><use xlink:href="#2"/><use xlink:href="#13" y="2.171"/><use xlink:href="#14" y="4.342"/><use xlink:href="#17" y="6.513"/><use xlink:href="#16" y="8.684"/></svg><svg x="3825"><use xlink:href="#a"/><use xlink:href="#2"/><use xlink:href="#13" y="2.171"/><use xlink:href="#14" y="4.342"/><use xlink:href="#17" y="6.513"/><use xlink:href="#16" y="8.684"/></svg><svg x="3900"><use xlink:href="#a"/><use xlink:href="#2"/><use xlink:href="#13" y="2.171"/><use xlink:href="#14" y="4.342"/><use xlink:href="#16" y="8.684"/></svg><svg x="3975"><use xlink:href="#a"/><use xlink:href="#2"/><use xlink:href="#13" y="2.171"/><use xlink:href="#14" y="4.342"/><use xlink:href="#18" y="6.513"/><use xlink:href="#16" y="8.684"/></svg><svg x="4050"><use xlink:href="#a"/><use xlink:href="#2"/><use xlink:href="#13" y="2.171"/><use xlink:href="#14" y="4.342"/><use xlink:href="#18" y="6.513"/><use xlink:href="#16" y="8.684"/></svg><svg x="4125"><use xlink:href="#a"/><use xlink:href="#2"/><use xlink:href="#13" y="2.171"/><use xlink:href="#14" y="4.342"/><use xlink:href="#16" y="8.684"/></svg><svg x="4200"><use xlink:href="#a"/><use xlink:href="#2"/><use xlink:href="#13" y="2.171"/><use xlink:href="#14" y="4.342"/><use xlink:href="#19" y="6.513"/><use xlink:href="#16" y="8.684"/></svg><svg x="4275"><use xlink:href="#a"/><use xlink:href="#2"/><use xlink:href="#13" y="2.171"/><use xlink:href="#14" y="4.342"/><use xlink:href="#19" y="6.513"/><use xlink:href="#16" y="8.684"/></svg><svg x="4350"><use xlink:href="#a"/><use xlink:href="#2"/><use xlink:href="#13" y="2.171"/><use xlink:href="#20" y="4.342"/><use xlink:href="#21" y="6.513"/></svg><svg x="4425"><use xlink:href="#a"/><use xlink:href="#2"/><use xlink:href="#13" y="2.171"/><use xlink:href="#20" y="4.342"/><use xlink:href="#21" y="6.513"/></svg><svg x="4500"><use xlink:href="#a"/><use xlink:href="#2"/><use xlink:href="#13" y="2.171"/><use xlink:href="#20" y="4.342"/><use xlink:href="#21" y="6.513"/></svg><svg x="4575"><use xlink:href="#a"/><use xlink:href="#2"/><use xlink:href="#13" y="2.171"/><use xlink:href="#20" y="4.342"/><use xlink:href="#21" y="6.513"/><use xlink:href="#13" y="8.684"/><use xlink:href="#22" y="10.855"/><use xlink:href="#15" y="13.026"/><use xlink:href="#16" y="15.197"/></svg><svg x="4650"><use xlink:href="#a"/><use xlink:href="#2"/><use xlink:href="#13" y="2.171"/><use xlink:href="#20" y="4.342"/><use xlink:href="#21" y="6.513"/><use xlink:href="#13" y="8.684"/><use xlink:href="#22" y="10.855"/><use xlink:href="#15" y="13.026"/><use xlink:href="#16" y="15.197"/></svg><svg x="4725"><use xlink:href="#a"/><use xlink:href="#2"/><use xlink:href="#13" y="2.171"/><use xlink:href="#20" y="4.342"/><use xlink:href="#21" y="6.513"/><use xlink:href="#13" y="8.684"/><use xlink:href="#23" y="10.855"/><use xlink:href="#24" y="13.026"/></svg><svg x="4800"><use xlink:href="#a"/><use xlink:href="#2"/><use xlink:href="#13" y="2.171"/><use xlink:href="#20" y="4.342"/><use xlink:href="#21" y="6.513"/><use xlink:href="#13" y="8.684"/><use xlink:href="#23" y="10.855"/><use xlink:href="#24" y="13.026"/></svg><svg x="4875"><use xlink:href="#a"/><use xlink:href="#2"/><use xlink:href="#13" y="2.171"/><use xlink:href="#20" y="4.342"/><use xlink:href="#21" y="6.513"/><use xlink:href="#13" y="8.684"/><use xlink:href="#23" y="10.855"/><use xlink:href="#24" y="13.026"/></svg><svg x="4950"><use xlink:href="#a"/><use xlink:href="#2"/><use xlink:href="#13" y="2.171"/><use xlink:href="#20" y="4.342"/><use xlink:href="#21" y="6.513"/><use xlink:href="#13" y="8.684"/><use xlink:href="#23" y="10.855"/><use xlink:href="#24" y="13.026"/><use xlink:href="#13" y="15.197"/><use xlink:href="#25" y="17.368"/><text y="21.209" class="n">│</text><text x="3.006" y="21.209" class="k">●</text><text x="5.01" y="21.209" class="l">Library（SDK）</text><text y="23.38" class="n">│</text><text x="3.006" y="23.38" class="l">○</text><text x="5.01" y="23.38" class="l">Monorepo（packages/apps）</text><use xlink:href="#16" y="23.881"/></svg><svg x="5025"><use xlink:href="#a"/><use xlink:href="#2"/><use xlink:href="#13" y="2.171"/><use xlink:href="#20" y="4.342"/><use xlink:href="#21" y="6.513"/><use xlink:href="#13" y="8.684"/><use xlink:href="#23" y="10.855"/><use xlink:href="#24" y="13.026"/><use xlink:href="#13" y="15.197"/></svg><svg x="5100"><use xlink:href="#a"/><use xlink:href="#2"/><use xlink:href="#13" y="2.171"/><use xlink:href="#20" y="4.342"/><use xlink:href="#21" y="6.513"/><use xlink:href="#13" y="8.684"/><use xlink:href="#23" y="10.855"/><use xlink:href="#24" y="13.026"/><use xlink:href="#13" y="15.197"/><use xlink:href="#26" y="17.368"/><use xlink:href="#27" y="19.539"/></svg><svg x="5175"><use xlink:href="#a"/><use xlink:href="#2"/><use xlink:href="#13" y="2.171"/><use xlink:href="#20" y="4.342"/><use xlink:href="#21" y="6.513"/><use xlink:href="#13" y="8.684"/><use xlink:href="#23" y="10.855"/><use xlink:href="#24" y="13.026"/><use xlink:href="#13" y="15.197"/><use xlink:href="#26" y="17.368"/><use xlink:href="#27" y="19.539"/></svg><svg x="5250"><use xlink:href="#a"/><use xlink:href="#2"/><use xlink:href="#13" y="2.171"/><use xlink:href="#20" y="4.342"/><use xlink:href="#21" y="6.513"/><use xlink:href="#13" y="8.684"/><use xlink:href="#23" y="10.855"/><use xlink:href="#24" y="13.026"/><use xlink:href="#13" y="15.197"/><use xlink:href="#26" y="17.368"/><use xlink:href="#27" y="19.539"/></svg><svg x="5325"><use xlink:href="#a"/><use xlink:href="#13"/><use xlink:href="#20" y="2.171"/><use xlink:href="#21" y="4.342"/><use xlink:href="#13" y="6.513"/><use xlink:href="#23" y="8.684"/><use xlink:href="#24" y="10.855"/><use xlink:href="#13" y="13.026"/><use xlink:href="#26" y="15.197"/><use xlink:href="#27" y="17.368"/><use xlink:href="#13" y="19.539"/><use xlink:href="#25" y="21.71"/><use xlink:href="#28" y="23.881"/><use xlink:href="#29" y="26.052"/><use xlink:href="#30" y="28.223"/><use xlink:href="#31" y="30.394"/><use xlink:href="#16" y="32.565"/></svg><svg x="5400"><use xlink:href="#a"/><use xlink:href="#13"/><use xlink:href="#20" y="2.171"/><use xlink:href="#21" y="4.342"/><use xlink:href="#13" y="6.513"/><use xlink:href="#23" y="8.684"/><use xlink:href="#24" y="10.855"/><use xlink:href="#13" y="13.026"/><use xlink:href="#26" y="15.197"/><use xlink:href="#27" y="17.368"/><use xlink:href="#13" y="19.539"/><use xlink:href="#25" y="21.71"/><use xlink:href="#28" y="23.881"/><use xlink:href="#29" y="26.052"/><use xlink:href="#30" y="28.223"/><use xlink:href="#31" y="30.394"/><use xlink:href="#16" y="32.565"/></svg><svg x="5475"><use xlink:href="#a"/><use xlink:href="#13"/><use xlink:href="#20" y="2.171"/><use xlink:href="#21" y="4.342"/><use xlink:href="#13" y="6.513"/><use xlink:href="#23" y="8.684"/><use xlink:href="#24" y="10.855"/><use xlink:href="#13" y="13.026"/><use xlink:href="#26" y="15.197"/><use xlink:href="#27" y="17.368"/><use xlink:href="#13" y="19.539"/><use xlink:href="#26" y="21.71"/><use xlink:href="#32" y="23.881"/></svg><svg x="5550"><use xlink:href="#a"/><use xlink:href="#13"/><use xlink:href="#20" y="2.171"/><use xlink:href="#21" y="4.342"/><use xlink:href="#13" y="6.513"/><use xlink:href="#23" y="8.684"/><use xlink:href="#24" y="10.855"/><use xlink:href="#13" y="13.026"/><use xlink:href="#26" y="15.197"/><use xlink:href="#27" y="17.368"/><use xlink:href="#13" y="19.539"/><use xlink:href="#26" y="21.71"/><use xlink:href="#32" y="23.881"/></svg><svg x="5625"><use xlink:href="#a"/><use xlink:href="#13"/><use xlink:href="#20" y="2.171"/><use xlink:href="#21" y="4.342"/><use xlink:href="#13" y="6.513"/><use xlink:href="#23" y="8.684"/><use xlink:href="#24" y="10.855"/><use xlink:href="#13" y="13.026"/><use xlink:href="#26" y="15.197"/><use xlink:href="#27" y="17.368"/><use xlink:href="#13" y="19.539"/><use xlink:href="#26" y="21.71"/><use xlink:href="#32" y="23.881"/></svg><svg x="5700"><use xlink:href="#a"/><use xlink:href="#21"/><use xlink:href="#13" y="2.171"/><use xlink:href="#23" y="4.342"/><use xlink:href="#24" y="6.513"/><use xlink:href="#13" y="8.684"/><use xlink:href="#26" y="10.855"/><use xlink:href="#27" y="13.026"/><use xlink:href="#13" y="15.197"/><use xlink:href="#26" y="17.368"/><use xlink:href="#32" y="19.539"/><use xlink:href="#13" y="21.71"/><use xlink:href="#33" y="23.881"/><use xlink:href="#34" y="26.052"/><use xlink:href="#35" y="28.223"/><use xlink:href="#36" y="30.394"/><use xlink:href="#16" y="32.565"/></svg><svg x="5775"><use xlink:href="#a"/><use xlink:href="#21"/><use xlink:href="#13" y="2.171"/><use xlink:href="#23" y="4.342"/><use xlink:href="#24" y="6.513"/><use xlink:href="#13" y="8.684"/><use xlink:href="#26" y="10.855"/><use xlink:href="#27" y="13.026"/><use xlink:href="#13" y="15.197"/><use xlink:href="#26" y="17.368"/><use xlink:href="#32" y="19.539"/><use xlink:href="#13" y="21.71"/><use xlink:href="#33" y="23.881"/><use xlink:href="#34" y="26.052"/><use xlink:href="#35" y="28.223"/><use xlink:href="#36" y="30.394"/><use xlink:href="#16" y="32.565"/></svg><svg x="5850"><use xlink:href="#a"/><use xlink:href="#21"/><use xlink:href="#13" y="2.171"/><use xlink:href="#23" y="4.342"/><use xlink:href="#24" y="6.513"/><use xlink:href="#13" y="8.684"/><use xlink:href="#26" y="10.855"/><use xlink:href="#27" y="13.026"/><use xlink:href="#13" y="15.197"/><use xlink:href="#26" y="17.368"/><use xlink:href="#32" y="19.539"/><use xlink:href="#13" y="21.71"/><use xlink:href="#37" y="23.881"/><use xlink:href="#38" y="26.052"/></svg><svg x="5925"><use xlink:href="#a"/><use xlink:href="#21"/><use xlink:href="#13" y="2.171"/><use xlink:href="#23" y="4.342"/><use xlink:href="#24" y="6.513"/><use xlink:href="#13" y="8.684"/><use xlink:href="#26" y="10.855"/><use xlink:href="#27" y="13.026"/><use xlink:href="#13" y="15.197"/><use xlink:href="#26" y="17.368"/><use xlink:href="#32" y="19.539"/><use xlink:href="#13" y="21.71"/><use xlink:href="#37" y="23.881"/><use xlink:href="#38" y="26.052"/></svg><svg x="6000"><use xlink:href="#a"/><use xlink:href="#13"/><use xlink:href="#23" y="2.171"/><use xlink:href="#24" y="4.342"/><use xlink:href="#13" y="6.513"/><use xlink:href="#26" y="8.684"/><use xlink:href="#27" y="10.855"/><use xlink:href="#13" y="13.026"/><use xlink:href="#26" y="15.197"/><use xlink:href="#32" y="17.368"/><use xlink:href="#13" y="19.539"/><use xlink:href="#37" y="21.71"/><use xlink:href="#38" y="23.881"/><use xlink:href="#13" y="26.052"/><use xlink:href="#39" y="28.223"/><use xlink:href="#40" y="30.394"/><use xlink:href="#16" y="32.565"/></svg><svg x="6075"><use xlink:href="#a"/><use xlink:href="#13"/><use xlink:href="#23" y="2.171"/><use xlink:href="#24" y="4.342"/><use xlink:href="#13" y="6.513"/><use xlink:href="#26" y="8.684"/><use xlink:href="#27" y="10.855"/><use xlink:href="#13" y="13.026"/><use xlink:href="#26" y="15.197"/><use xlink:href="#32" y="17.368"/><use xlink:href="#13" y="19.539"/><use xlink:href="#37" y="21.71"/><use xlink:href="#38" y="23.881"/><use xlink:href="#13" y="26.052"/><use xlink:href="#39" y="28.223"/><use xlink:href="#40" y="30.394"/><use xlink:href="#16" y="32.565"/></svg><svg x="6150"><use xlink:href="#a"/><use xlink:href="#13"/><use xlink:href="#23" y="2.171"/><use xlink:href="#24" y="4.342"/><use xlink:href="#13" y="6.513"/><use xlink:href="#26" y="8.684"/><use xlink:href="#27" y="10.855"/><use xlink:href="#13" y="13.026"/><use xlink:href="#26" y="15.197"/><use xlink:href="#32" y="17.368"/><use xlink:href="#13" y="19.539"/><use xlink:href="#37" y="21.71"/><use xlink:href="#38" y="23.881"/><use xlink:href="#13" y="26.052"/><use xlink:href="#39" y="28.223"/><use xlink:href="#41" y="30.394"/><use xlink:href="#16" y="32.565"/></svg><svg x="6225"><use xlink:href="#a"/><use xlink:href="#13"/><use xlink:href="#23" y="2.171"/><use xlink:href="#24" y="4.342"/><use xlink:href="#13" y="6.513"/><use xlink:href="#26" y="8.684"/><use xlink:href="#27" y="10.855"/><use xlink:href="#13" y="13.026"/><use xlink:href="#26" y="15.197"/><use xlink:href="#32" y="17.368"/><use xlink:href="#13" y="19.539"/><use xlink:href="#37" y="21.71"/><use xlink:href="#38" y="23.881"/><use xlink:href="#13" y="26.052"/><use xlink:href="#39" y="28.223"/><use xlink:href="#41" y="30.394"/><use xlink:href="#16" y="32.565"/></svg><svg x="6300"><use xlink:href="#a"/><use xlink:href="#13"/><use xlink:href="#23" y="2.171"/><use xlink:href="#24" y="4.342"/><use xlink:href="#13" y="6.513"/><use xlink:href="#26" y="8.684"/><use xlink:href="#27" y="10.855"/><use xlink:href="#13" y="13.026"/><use xlink:href="#26" y="15.197"/><use xlink:href="#32" y="17.368"/><use xlink:href="#13" y="19.539"/><use xlink:href="#37" y="21.71"/><use xlink:href="#38" y="23.881"/><use xlink:href="#13" y="26.052"/><use xlink:href="#42" y="28.223"/><use xlink:href="#43" y="30.394"/></svg><svg x="6375"><use xlink:href="#a"/><use xlink:href="#13"/><use xlink:href="#23" y="2.171"/><use xlink:href="#24" y="4.342"/><use xlink:href="#13" y="6.513"/><use xlink:href="#26" y="8.684"/><use xlink:href="#27" y="10.855"/><use xlink:href="#13" y="13.026"/><use xlink:href="#26" y="15.197"/><use xlink:href="#32" y="17.368"/><use xlink:href="#13" y="19.539"/><use xlink:href="#37" y="21.71"/><use xlink:href="#38" y="23.881"/><use xlink:href="#13" y="26.052"/><use xlink:href="#42" y="28.223"/><use xlink:href="#43" y="30.394"/></svg><svg x="6450"><use xlink:href="#a"/><use xlink:href="#13"/><use xlink:href="#23" y="2.171"/><use xlink:href="#24" y="4.342"/><use xlink:href="#13" y="6.513"/><use xlink:href="#26" y="8.684"/><use xlink:href="#27" y="10.855"/><use xlink:href="#13" y="13.026"/><use xlink:href="#26" y="15.197"/><use xlink:href="#32" y="17.368"/><use xlink:href="#13" y="19.539"/><use xlink:href="#37" y="21.71"/><use xlink:href="#38" y="23.881"/><use xlink:href="#13" y="26.052"/><use xlink:href="#42" y="28.223"/><use xlink:href="#43" y="30.394"/></svg><svg x="6525"><use xlink:href="#a"/><use xlink:href="#13"/><use xlink:href="#23" y="2.171"/><use xlink:href="#24" y="4.342"/><use xlink:href="#13" y="6.513"/><use xlink:href="#26" y="8.684"/><use xlink:href="#27" y="10.855"/><use xlink:href="#13" y="13.026"/><use xlink:href="#26" y="15.197"/><use xlink:href="#32" y="17.368"/><use xlink:href="#13" y="19.539"/><use xlink:href="#37" y="21.71"/><use xlink:href="#38" y="23.881"/><use xlink:href="#13" y="26.052"/><use xlink:href="#42" y="28.223"/><use xlink:href="#43" y="30.394"/></svg><svg x="6600"><use xlink:href="#a"/><use xlink:href="#26"/><use xlink:href="#32" y="2.171"/><use xlink:href="#13" y="4.342"/><use xlink:href="#37" y="6.513"/><use xlink:href="#38" y="8.684"/><use xlink:href="#13" y="10.855"/><use xlink:href="#42" y="13.026"/><use xlink:href="#43" y="15.197"/><use xlink:href="#44" y="19.539"/><use xlink:href="#45" y="23.881"/><use xlink:href="#46" y="28.223"/><use xlink:href="#47" y="30.394"/></svg><svg x="6675"><use xlink:href="#a"/><use xlink:href="#26"/><use xlink:href="#32" y="2.171"/><use xlink:href="#13" y="4.342"/><use xlink:href="#37" y="6.513"/><use xlink:href="#38" y="8.684"/><use xlink:href="#13" y="10.855"/><use xlink:href="#42" y="13.026"/><use xlink:href="#43" y="15.197"/><use xlink:href="#44" y="19.539"/><use xlink:href="#45" y="23.881"/><use xlink:href="#46" y="28.223"/><use xlink:href="#47" y="30.394"/><use xlink:href="#3" y="34.736"/></svg><svg x="6750"><use xlink:href="#a"/><use xlink:href="#26"/><use xlink:href="#32" y="2.171"/><use xlink:href="#13" y="4.342"/><use xlink:href="#37" y="6.513"/><use xlink:href="#38" y="8.684"/><use xlink:href="#13" y="10.855"/><use xlink:href="#42" y="13.026"/><use xlink:href="#43" y="15.197"/><use xlink:href="#44" y="19.539"/><use xlink:href="#45" y="23.881"/><use xlink:href="#46" y="28.223"/><use xlink:href="#47" y="30.394"/></svg><svg x="6825"><use xlink:href="#a"/><use xlink:href="#26"/><use xlink:href="#32" y="2.171"/><use xlink:href="#13" y="4.342"/><use xlink:href="#37" y="6.513"/><use xlink:href="#38" y="8.684"/><use xlink:href="#13" y="10.855"/><use xlink:href="#42" y="13.026"/><use xlink:href="#43" y="15.197"/><use xlink:href="#44" y="19.539"/><use xlink:href="#45" y="23.881"/><use xlink:href="#46" y="28.223"/><use xlink:href="#47" y="30.394"/><use xlink:href="#1" y="34.736"/></svg><svg x="6900"><use xlink:href="#a"/><use xlink:href="#26"/><use xlink:href="#32" y="2.171"/><use xlink:href="#13" y="4.342"/><use xlink:href="#37" y="6.513"/><use xlink:href="#38" y="8.684"/><use xlink:href="#13" y="10.855"/><use xlink:href="#42" y="13.026"/><use xlink:href="#43" y="15.197"/><use xlink:href="#44" y="19.539"/><use xlink:href="#45" y="23.881"/><use xlink:href="#46" y="28.223"/><use xlink:href="#47" y="30.394"/><use xlink:href="#1" y="34.736"/></svg><svg x="6975"><use xlink:href="#a"/><use xlink:href="#32"/><use xlink:href="#13" y="2.171"/><use xlink:href="#37" y="4.342"/><use xlink:href="#38" y="6.513"/><use xlink:href="#13" y="8.684"/><use xlink:href="#42" y="10.855"/><use xlink:href="#43" y="13.026"/><use xlink:href="#44" y="17.368"/><use xlink:href="#45" y="21.71"/><use xlink:href="#46" y="26.052"/><use xlink:href="#47" y="28.223"/><use xlink:href="#1" y="32.565"/></svg></svg></g></g></svg></svg>