<svg xmlns="http://www.w3.org/2000/svg" xmlns:xlink="http://www.w3.org/1999/xlink" width="790" height="407.36"><rect width="790" height="407.36" rx="5" ry="5" class="a"/><svg y="0%" x="0%"><circle cx="20" cy="20" r="6" fill="#ff5f58"/><circle cx="40" cy="20" r="6" fill="#ffbd2e"/><circle cx="60" cy="20" r="6" fill="#18c132"/></svg><svg height="347.36" viewBox="0 0 75 34.736" width="750" x="15" xmlns="http://www.w3.org/2000/svg" xmlns:xlink="http://www.w3.org/1999/xlink" y="50"><style>@keyframes o{0%{transform:translateX(0)}1.91%{transform:translateX(-150px)}3.99%{transform:translateX(-225px)}4.67%{transform:translateX(-300px)}6.8%{transform:translateX(-375px)}8.07%{transform:translateX(-525px)}8.09%{transform:translateX(-600px)}9.33%{transform:translateX(-750px)}9.66%{transform:translateX(-825px)}9.99%{transform:translateX(-900px)}10.33%{transform:translateX(-1050px)}10.66%{transform:translateX(-1125px)}10.99%{transform:translateX(-1200px)}11.33%{transform:translateX(-1275px)}11.67%{transform:translateX(-1350px)}12%{transform:translateX(-1425px)}12.33%{transform:translateX(-1575px)}12.67%{transform:translateX(-1650px)}13%{transform:translateX(-1725px)}13.33%{transform:translateX(-1800px)}13.66%{transform:translateX(-1875px)}13.99%{transform:translateX(-1950px)}14.33%{transform:translateX(-2025px)}14.66%{transform:translateX(-2100px)}15.04%{transform:translateX(-2175px)}15.35%{transform:translateX(-2250px)}22.6%{transform:translateX(-2400px)}25.14%{transform:translateX(-2550px)}26.06%{transform:translateX(-2700px)}26.77%{transform:translateX(-2925px)}27.96%{transform:translateX(-3075px)}27.97%{transform:translateX(-3225px)}27.98%{transform:translateX(-3300px)}31.81%{transform:translateX(-3375px)}31.82%{transform:translateX(-3450px)}31.83%{transform:translateX(-3525px)}39.48%{transform:translateX(-3675px)}40.94%{transform:translateX(-3825px)}42.67%{transform:translateX(-4125px)}42.69%{transform:translateX(-4200px)}46.62%{transform:translateX(-4350px)}47.39%{transform:translateX(-4500px)}48.2%{transform:translateX(-4650px)}49.74%{transform:translateX(-4800px)}54.52%{transform:translateX(-5025px)}54.62%{transform:translateX(-5100px)}60.73%{transform:translateX(-5250px)}61.31%{transform:translateX(-5400px)}62.15%{transform:translateX(-5550px)}64.93%{transform:translateX(-5700px)}64.94%{transform:translateX(-5850px)}65.02%{transform:translateX(-5925px)}69.16%{transform:translateX(-6150px)}74.36%{transform:translateX(-6450px)}85.31%{transform:translateX(-6750px)}85.33%{transform:translateX(-7050px)}85.39%{transform:translateX(-7200px)}to{transform:translateX(-7275px)}}.a{fill:#282d35}.f,.g{fill:#a8cc8c;font-weight:700;white-space:pre}.g{fill:#66c2cd}.h,.i,.j,.k,.q{fill:#a8cc8c;white-space:pre}.i,.j,.k,.q{fill:#b9c0cb}.j,.k,.q{fill:#6f7783}.k,.q{fill:#66c2cd}.q{fill:#e88388;font-weight:700}</style><g font-family="Monaco,Consolas,Menlo,'Bitstream Vera Sans Mono','Powerline Symbols',monospace" font-size="1.67"><defs><symbol id="1"><text y="1.67" class="f">➜</text><text x="3.006" y="1.67" class="g">CODE</text></symbol><symbol id="2"><text y="1.67" class="f">➜</text><text x="3.006" y="1.67" class="g">CODE</text><text x="8.016" y="1.67" class="h">npx</text><text x="12.024" y="1.67" class="i">@e.fe/create-app@latest</text></symbol><symbol id="3"><text y="1.67" class="i">⠙</text></symbol><symbol id="4"><text y="1.67" class="i">⠹</text></symbol><symbol id="5"><text y="1.67" class="i">⠸</text></symbol><symbol id="6"><text y="1.67" class="i">⠼</text></symbol><symbol id="7"><text y="1.67" class="i">⠴</text></symbol><symbol id="8"><text y="1.67" class="i">⠦</text></symbol><symbol id="9"><text y="1.67" class="i">⠧</text></symbol><symbol id="10"><text y="1.67" class="i">⠇</text></symbol><symbol id="11"><text y="1.67" class="j">│</text></symbol><symbol id="12"><text y="1.67" class="k">◆</text><text x="3.006" y="1.67" class="i">Enter</text><text x="9.018" y="1.67" class="i">project</text><text x="17.034" y="1.67" class="i">name</text><text x="22.044" y="1.67" class="j">(lowercase</text><text x="33.066" y="1.67" class="j">letters,</text><text x="42.084" y="1.67" class="j">numbers,</text><text x="51.102" y="1.67" class="j">connected</text><text x="61.122" y="1.67" class="j">by</text><text x="64.128" y="1.67" class="j">hyphens)</text><text x="72.144" y="1.67" class="i">:</text></symbol><symbol id="13"><text y="1.67" class="k">│</text><path fill="#b9c0cb" d="M3.006 0h1v2.171h-1z"/><text x="3.006" y="1.67" style="white-space:pre" fill="#282d35">_</text></symbol><symbol id="14"><text y="1.67" class="k">└</text></symbol><symbol id="15"><text y="1.67" class="k">│</text><text x="3.006" y="1.67" class="i">x█</text></symbol><symbol id="16"><text y="1.67" class="k">│</text><text x="3.006" y="1.67" class="i">xx█</text></symbol><symbol id="17"><text y="1.67" class="k">│</text><text x="3.006" y="1.67" class="i">xxx█</text></symbol><symbol id="18"><text y="1.67" class="h">◇</text><text x="3.006" y="1.67" class="i">Enter</text><text x="9.018" y="1.67" class="i">project</text><text x="17.034" y="1.67" class="i">name</text><text x="22.044" y="1.67" class="j">(lowercase</text><text x="33.066" y="1.67" class="j">letters,</text><text x="42.084" y="1.67" class="j">numbers,</text><text x="51.102" y="1.67" class="j">connected</text><text x="61.122" y="1.67" class="j">by</text><text x="64.128" y="1.67" class="j">hyphens)</text><text x="72.144" y="1.67" class="i">:</text></symbol><symbol id="19"><text y="1.67" class="j">│</text><text x="3.006" y="1.67" class="i">xxx</text></symbol><symbol id="20"><text y="1.67" class="h">◇</text><text x="3.006" y="1.67" class="i">Enter</text><text x="9.018" y="1.67" class="i">project</text><text x="17.034" y="1.67" class="i">description</text><text x="29.058" y="1.67" class="j">(optional,</text><text x="40.08" y="1.67" class="j">press</text><text x="46.092" y="1.67" class="j">Enter</text><text x="52.104" y="1.67" class="j">to</text><text x="55.11" y="1.67" class="j">skip)</text><text x="60.12" y="1.67" class="i">:</text></symbol><symbol id="21"><text y="1.67" class="j">│</text><text x="3.006" y="1.67" class="i">undefined</text></symbol><symbol id="22"><text y="1.67" class="k">◆</text><text x="3.006" y="1.67" class="i">Please</text><text x="10.02" y="1.67" class="i">select:</text></symbol><symbol id="23"><text y="1.67" class="k">│</text><text x="3.006" y="1.67" class="h">●</text><text x="5.01" y="1.67" class="i">Library（SDK）</text></symbol><symbol id="24"><text y="1.67" class="k">│</text><text x="3.006" y="1.67" class="i">○</text><text x="5.01" y="1.67" class="i">Monorepo（packages/apps）</text></symbol><symbol id="25"><text y="1.67" class="k">│</text><text x="3.006" y="1.67" class="i">○</text><text x="5.01" y="1.67" class="i">Library（SDK）</text></symbol><symbol id="26"><text y="1.67" class="k">│</text><text x="3.006" y="1.67" class="h">●</text><text x="5.01" y="1.67" class="i">Monorepo（packages/apps）</text></symbol><symbol id="27"><text y="1.67" class="h">◇</text><text x="3.006" y="1.67" class="i">Please</text><text x="10.02" y="1.67" class="i">select:</text></symbol><symbol id="28"><text y="1.67" class="j">│</text><text x="3.006" y="1.67" class="i">Library（SDK）</text></symbol><symbol id="29"><text y="1.67" class="k">│</text><text x="3.006" y="1.67" class="h">●</text><text x="5.01" y="1.67" class="i">unbuild</text><text x="13.026" y="1.67" class="i">(https://github.com/unjs/unbuild)</text></symbol><symbol id="30"><text y="1.67" class="k">│</text><text x="3.006" y="1.67" class="i">○</text><text x="5.01" y="1.67" class="i">vite</text></symbol><symbol id="31"><text y="1.67" class="k">│</text><text x="3.006" y="1.67" class="i">○</text><text x="5.01" y="1.67" class="i">tsup</text></symbol><symbol id="32"><text y="1.67" class="k">│</text><text x="3.006" y="1.67" class="i">○</text><text x="5.01" y="1.67" class="i">rollup</text></symbol><symbol id="33"><text y="1.67" class="k">│</text><text x="3.006" y="1.67" class="i">○</text><text x="5.01" y="1.67" class="i">unbuild</text></symbol><symbol id="34"><text y="1.67" class="k">│</text><text x="3.006" y="1.67" class="h">●</text><text x="5.01" y="1.67" class="i">vite</text><text x="10.02" y="1.67" class="i">(https://vite.dev/)</text></symbol><symbol id="35"><text y="1.67" class="k">│</text><text x="3.006" y="1.67" class="h">●</text><text x="5.01" y="1.67" class="i">tsup</text><text x="10.02" y="1.67" class="i">(https://github.com/egoist/tsup)</text></symbol><symbol id="36"><text y="1.67" class="k">│</text><text x="3.006" y="1.67" class="h">●</text><text x="5.01" y="1.67" class="i">rollup</text><text x="12.024" y="1.67" class="i">(https://rollupjs.org/)</text></symbol><symbol id="37"><text y="1.67" class="j">│</text><text x="3.006" y="1.67" class="i">unbuild</text></symbol><symbol id="38"><text y="1.67" class="k">◆</text><text x="3.006" y="1.67" class="i">Select</text><text x="10.02" y="1.67" class="i">package</text><text x="18.036" y="1.67" class="i">manager:</text></symbol><symbol id="39"><text y="1.67" class="k">│</text><text x="3.006" y="1.67" class="h">●</text><text x="5.01" y="1.67" class="i">pnpm</text></symbol><symbol id="40"><text y="1.67" class="k">│</text><text x="3.006" y="1.67" class="i">○</text><text x="5.01" y="1.67" class="i">npm</text></symbol><symbol id="41"><text y="1.67" class="k">│</text><text x="3.006" y="1.67" class="i">○</text><text x="5.01" y="1.67" class="i">yarn</text></symbol><symbol id="42"><text y="1.67" class="k">│</text><text x="3.006" y="1.67" class="i">○</text><text x="5.01" y="1.67" class="i">pnpm</text></symbol><symbol id="43"><text y="1.67" class="k">│</text><text x="3.006" y="1.67" class="h">●</text><text x="5.01" y="1.67" class="i">npm</text></symbol><symbol id="44"><text y="1.67" class="k">│</text><text x="3.006" y="1.67" class="h">●</text><text x="5.01" y="1.67" class="i">yarn</text></symbol><symbol id="45"><text y="1.67" class="h">◇</text><text x="3.006" y="1.67" class="i">Select</text><text x="10.02" y="1.67" class="i">package</text><text x="18.036" y="1.67" class="i">manager:</text></symbol><symbol id="46"><text y="1.67" class="j">│</text><text x="3.006" y="1.67" class="i">pnpm</text></symbol><symbol id="47"><text y="1.67" class="k">◆</text><text x="3.006" y="1.67" class="i">Do</text><text x="6.012" y="1.67" class="i">you</text><text x="10.02" y="1.67" class="i">want</text><text x="15.03" y="1.67" class="i">to</text><text x="18.036" y="1.67" class="i">install</text><text x="26.052" y="1.67" class="i">now?</text></symbol><symbol id="48"><text y="1.67" class="k">│</text><text x="3.006" y="1.67" class="h">●</text><text x="5.01" y="1.67" class="i">Yes</text><text x="9.018" y="1.67" class="i">/</text><text x="11.022" y="1.67" class="i">○</text><text x="13.026" y="1.67" class="i">No</text></symbol><symbol id="49"><text y="1.67" class="k">│</text><text x="3.006" y="1.67" class="i">○</text><text x="5.01" y="1.67" class="i">Yes</text><text x="9.018" y="1.67" class="i">/</text><text x="11.022" y="1.67" class="h">●</text><text x="13.026" y="1.67" class="i">No</text></symbol><symbol id="50"><text y="1.67" class="h">◇</text><text x="3.006" y="1.67" class="i">Do</text><text x="6.012" y="1.67" class="i">you</text><text x="10.02" y="1.67" class="i">want</text><text x="15.03" y="1.67" class="i">to</text><text x="18.036" y="1.67" class="i">install</text><text x="26.052" y="1.67" class="i">now?</text></symbol><symbol id="51"><text y="1.67" class="j">│</text><text x="3.006" y="1.67" class="i">No</text></symbol><symbol id="52"><text y="1.67" class="i">Success!</text><text x="9.018" y="1.67" class="i">Created</text><text x="17.034" y="1.67" class="h">xxx</text><text x="21.042" y="1.67" class="i">at</text><text x="24.048" y="1.67" class="h">/CODE/xxx</text></symbol><symbol id="53"><text y="1.67" class="i">Now</text><text x="4.008" y="1.67" class="i">you</text><text x="8.016" y="1.67" class="i">can</text><text x="12.024" y="1.67" class="i">start</text><text x="18.036" y="1.67" class="i">the</text><text x="22.044" y="1.67" class="i">development:</text></symbol><symbol id="54"><text x="2.004" y="1.67" class="k">cd</text><text x="5.01" y="1.67" class="h">xxx</text></symbol><symbol id="55"><text x="2.004" y="1.67" class="k">npm</text><text x="6.012" y="1.67" class="k">start</text></symbol><symbol id="a"><path fill="transparent" d="M0 0h75v17H0z"/></symbol></defs><path class="a" d="M0 0h75v34.736H0z"/><g style="animation-duration:24.324666s;animation-iteration-count:infinite;animation-name:o;animation-timing-function:steps(1,end)"><svg width="7350"><svg><use xlink:href="#a"/></svg><svg x="75"><use xlink:href="#a"/><use xlink:href="#1"/></svg><svg x="150"><use xlink:href="#a"/><use xlink:href="#1"/></svg><svg x="225"><use xlink:href="#a"/><text y="1.67" class="f">➜</text><text x="3.006" y="1.67" class="g">CODE</text><text x="8.016" y="1.67" class="q">n</text><text x="9.018" y="1.67" class="j">px</text><text x="12.024" y="1.67" class="j">@e.fe/create-app@latest</text></svg><svg x="300"><use xlink:href="#a"/><text y="1.67" class="f">➜</text><text x="3.006" y="1.67" class="g">CODE</text><text x="8.016" y="1.67" class="q">np</text><text x="10.02" y="1.67" class="j">x</text><text x="12.024" y="1.67" class="j">@e.fe/create-app@latest</text></svg><svg x="375"><use xlink:href="#a"/><use xlink:href="#2"/></svg><svg x="450"><use xlink:href="#a"/><use xlink:href="#2"/></svg><svg x="525"><use xlink:href="#a"/><use xlink:href="#2"/></svg><svg x="600"><use xlink:href="#a"/><use xlink:href="#2"/></svg><svg x="675"><use xlink:href="#a"/><use xlink:href="#2"/></svg><svg x="750"><use xlink:href="#a"/><use xlink:href="#2"/><use xlink:href="#3" y="2.171"/></svg><svg x="825"><use xlink:href="#a"/><use xlink:href="#2"/><use xlink:href="#4" y="2.171"/></svg><svg x="900"><use xlink:href="#a"/><use xlink:href="#2"/><use xlink:href="#5" y="2.171"/></svg><svg x="975"><use xlink:href="#a"/><use xlink:href="#2"/><use xlink:href="#5" y="2.171"/></svg><svg x="1050"><use xlink:href="#a"/><use xlink:href="#2"/><use xlink:href="#6" y="2.171"/></svg><svg x="1125"><use xlink:href="#a"/><use xlink:href="#2"/><use xlink:href="#7" y="2.171"/></svg><svg x="1200"><use xlink:href="#a"/><use xlink:href="#2"/><use xlink:href="#8" y="2.171"/></svg><svg x="1275"><use xlink:href="#a"/><use xlink:href="#2"/><use xlink:href="#9" y="2.171"/></svg><svg x="1350"><use xlink:href="#a"/><use xlink:href="#2"/><use xlink:href="#10" y="2.171"/></svg><svg x="1425"><use xlink:href="#a"/><use xlink:href="#2"/><text y="3.841" class="i">⠏</text></svg><svg x="1500"><use xlink:href="#a"/><use xlink:href="#2"/></svg><svg x="1575"><use xlink:href="#a"/><use xlink:href="#2"/><text y="3.841" class="i">⠋</text></svg><svg x="1650"><use xlink:href="#a"/><use xlink:href="#2"/><use xlink:href="#3" y="2.171"/></svg><svg x="1725"><use xlink:href="#a"/><use xlink:href="#2"/><use xlink:href="#4" y="2.171"/></svg><svg x="1800"><use xlink:href="#a"/><use xlink:href="#2"/><use xlink:href="#5" y="2.171"/></svg><svg x="1875"><use xlink:href="#a"/><use xlink:href="#2"/><use xlink:href="#6" y="2.171"/></svg><svg x="1950"><use xlink:href="#a"/><use xlink:href="#2"/><use xlink:href="#7" y="2.171"/></svg><svg x="2025"><use xlink:href="#a"/><use xlink:href="#2"/><use xlink:href="#8" y="2.171"/></svg><svg x="2100"><use xlink:href="#a"/><use xlink:href="#2"/><use xlink:href="#9" y="2.171"/></svg><svg x="2175"><use xlink:href="#a"/><use xlink:href="#2"/><use xlink:href="#10" y="2.171"/></svg><svg x="2250"><use xlink:href="#a"/><use xlink:href="#2"/></svg><svg x="2325"><use xlink:href="#a"/><use xlink:href="#2"/></svg><svg x="2400"><use xlink:href="#a"/><use xlink:href="#2"/><use xlink:href="#11" y="2.171"/><use xlink:href="#12" y="4.342"/><use xlink:href="#13" y="6.513"/><use xlink:href="#14" y="8.684"/></svg><svg x="2475"><use xlink:href="#a"/><use xlink:href="#2"/><use xlink:href="#11" y="2.171"/><use xlink:href="#12" y="4.342"/><use xlink:href="#13" y="6.513"/><use xlink:href="#14" y="8.684"/></svg><svg x="2550"><use xlink:href="#a"/><use xlink:href="#2"/><use xlink:href="#11" y="2.171"/><use xlink:href="#12" y="4.342"/><use xlink:href="#15" y="6.513"/><use xlink:href="#14" y="8.684"/></svg><svg x="2625"><use xlink:href="#a"/><use xlink:href="#2"/><use xlink:href="#11" y="2.171"/><use xlink:href="#12" y="4.342"/><use xlink:href="#15" y="6.513"/><use xlink:href="#14" y="8.684"/></svg><svg x="2700"><use xlink:href="#a"/><use xlink:href="#2"/><use xlink:href="#11" y="2.171"/><use xlink:href="#12" y="4.342"/><use xlink:href="#16" y="6.513"/><use xlink:href="#14" y="8.684"/></svg><svg x="2775"><use xlink:href="#a"/><use xlink:href="#2"/><use xlink:href="#11" y="2.171"/><use xlink:href="#12" y="4.342"/><use xlink:href="#16" y="6.513"/><use xlink:href="#14" y="8.684"/></svg><svg x="2850"><use xlink:href="#a"/><use xlink:href="#2"/><use xlink:href="#11" y="2.171"/><use xlink:href="#12" y="4.342"/><use xlink:href="#14" y="8.684"/></svg><svg x="2925"><use xlink:href="#a"/><use xlink:href="#2"/><use xlink:href="#11" y="2.171"/><use xlink:href="#12" y="4.342"/><use xlink:href="#17" y="6.513"/><use xlink:href="#14" y="8.684"/></svg><svg x="3000"><use xlink:href="#a"/><use xlink:href="#2"/><use xlink:href="#11" y="2.171"/><use xlink:href="#12" y="4.342"/><use xlink:href="#17" y="6.513"/><use xlink:href="#14" y="8.684"/></svg><svg x="3075"><use xlink:href="#a"/><use xlink:href="#2"/><use xlink:href="#11" y="2.171"/><use xlink:href="#18" y="4.342"/><use xlink:href="#19" y="6.513"/></svg><svg x="3150"><use xlink:href="#a"/><use xlink:href="#2"/><use xlink:href="#11" y="2.171"/><use xlink:href="#18" y="4.342"/><use xlink:href="#19" y="6.513"/></svg><svg x="3225"><use xlink:href="#a"/><use xlink:href="#2"/><use xlink:href="#11" y="2.171"/><use xlink:href="#18" y="4.342"/><use xlink:href="#19" y="6.513"/></svg><svg x="3300"><use xlink:href="#a"/><use xlink:href="#2"/><use xlink:href="#11" y="2.171"/><use xlink:href="#18" y="4.342"/><use xlink:href="#19" y="6.513"/><use xlink:href="#11" y="8.684"/><text y="12.525" class="k">◆</text><text x="3.006" y="12.525" class="i">Enter</text><text x="9.018" y="12.525" class="i">project</text><text x="17.034" y="12.525" class="i">description</text><text x="29.058" y="12.525" class="j">(optional,</text><text x="40.08" y="12.525" class="j">press</text><text x="46.092" y="12.525" class="j">Enter</text><text x="52.104" y="12.525" class="j">to</text><text x="55.11" y="12.525" class="j">skip)</text><text x="60.12" y="12.525" class="i">:</text><use xlink:href="#13" y="13.026"/><use xlink:href="#14" y="15.197"/></svg><svg x="3375"><use xlink:href="#a"/><use xlink:href="#2"/><use xlink:href="#11" y="2.171"/><use xlink:href="#18" y="4.342"/><use xlink:href="#19" y="6.513"/><use xlink:href="#11" y="8.684"/><use xlink:href="#20" y="10.855"/><use xlink:href="#21" y="13.026"/></svg><svg x="3450"><use xlink:href="#a"/><use xlink:href="#2"/><use xlink:href="#11" y="2.171"/><use xlink:href="#18" y="4.342"/><use xlink:href="#19" y="6.513"/><use xlink:href="#11" y="8.684"/><use xlink:href="#20" y="10.855"/><use xlink:href="#21" y="13.026"/></svg><svg x="3525"><use xlink:href="#a"/><use xlink:href="#2"/><use xlink:href="#11" y="2.171"/><use xlink:href="#18" y="4.342"/><use xlink:href="#19" y="6.513"/><use xlink:href="#11" y="8.684"/><use xlink:href="#20" y="10.855"/><use xlink:href="#21" y="13.026"/><use xlink:href="#11" y="15.197"/><use xlink:href="#22" y="17.368"/><use xlink:href="#23" y="19.539"/><use xlink:href="#24" y="21.71"/><use xlink:href="#14" y="23.881"/></svg><svg x="3600"><use xlink:href="#a"/><use xlink:href="#2"/><use xlink:href="#11" y="2.171"/><use xlink:href="#18" y="4.342"/><use xlink:href="#19" y="6.513"/><use xlink:href="#11" y="8.684"/><use xlink:href="#20" y="10.855"/><use xlink:href="#21" y="13.026"/><use xlink:href="#11" y="15.197"/><use xlink:href="#22" y="17.368"/><use xlink:href="#23" y="19.539"/><use xlink:href="#24" y="21.71"/><use xlink:href="#14" y="23.881"/></svg><svg x="3675"><use xlink:href="#a"/><use xlink:href="#2"/><use xlink:href="#11" y="2.171"/><use xlink:href="#18" y="4.342"/><use xlink:href="#19" y="6.513"/><use xlink:href="#11" y="8.684"/><use xlink:href="#20" y="10.855"/><use xlink:href="#21" y="13.026"/><use xlink:href="#11" y="15.197"/><use xlink:href="#22" y="17.368"/><use xlink:href="#25" y="19.539"/><use xlink:href="#26" y="21.71"/><use xlink:href="#14" y="23.881"/></svg><svg x="3750"><use xlink:href="#a"/><use xlink:href="#2"/><use xlink:href="#11" y="2.171"/><use xlink:href="#18" y="4.342"/><use xlink:href="#19" y="6.513"/><use xlink:href="#11" y="8.684"/><use xlink:href="#20" y="10.855"/><use xlink:href="#21" y="13.026"/><use xlink:href="#11" y="15.197"/><use xlink:href="#22" y="17.368"/><use xlink:href="#25" y="19.539"/><use xlink:href="#26" y="21.71"/><use xlink:href="#14" y="23.881"/></svg><svg x="3825"><use xlink:href="#a"/><use xlink:href="#2"/><use xlink:href="#11" y="2.171"/><use xlink:href="#18" y="4.342"/><use xlink:href="#19" y="6.513"/><use xlink:href="#11" y="8.684"/><use xlink:href="#20" y="10.855"/><use xlink:href="#21" y="13.026"/><use xlink:href="#11" y="15.197"/><use xlink:href="#22" y="17.368"/><use xlink:href="#23" y="19.539"/><use xlink:href="#24" y="21.71"/><use xlink:href="#14" y="23.881"/></svg><svg x="3900"><use xlink:href="#a"/><use xlink:href="#2"/><use xlink:href="#11" y="2.171"/><use xlink:href="#18" y="4.342"/><use xlink:href="#19" y="6.513"/><use xlink:href="#11" y="8.684"/><use xlink:href="#20" y="10.855"/><use xlink:href="#21" y="13.026"/><use xlink:href="#11" y="15.197"/><use xlink:href="#22" y="17.368"/><use xlink:href="#23" y="19.539"/><use xlink:href="#24" y="21.71"/><use xlink:href="#14" y="23.881"/></svg><svg x="3975"><use xlink:href="#a"/><use xlink:href="#2"/><use xlink:href="#11" y="2.171"/><use xlink:href="#18" y="4.342"/><use xlink:href="#19" y="6.513"/><use xlink:href="#11" y="8.684"/><use xlink:href="#20" y="10.855"/><use xlink:href="#21" y="13.026"/><use xlink:href="#11" y="15.197"/><use xlink:href="#27" y="17.368"/><use xlink:href="#28" y="19.539"/></svg><svg x="4050"><use xlink:href="#a"/><use xlink:href="#2"/><use xlink:href="#11" y="2.171"/><use xlink:href="#18" y="4.342"/><use xlink:href="#19" y="6.513"/><use xlink:href="#11" y="8.684"/><use xlink:href="#20" y="10.855"/><use xlink:href="#21" y="13.026"/><use xlink:href="#11" y="15.197"/><use xlink:href="#27" y="17.368"/><use xlink:href="#28" y="19.539"/></svg><svg x="4125"><use xlink:href="#a"/><use xlink:href="#2"/><use xlink:href="#11" y="2.171"/><use xlink:href="#18" y="4.342"/><use xlink:href="#19" y="6.513"/><use xlink:href="#11" y="8.684"/><use xlink:href="#20" y="10.855"/><use xlink:href="#21" y="13.026"/><use xlink:href="#11" y="15.197"/><use xlink:href="#27" y="17.368"/><use xlink:href="#28" y="19.539"/></svg><svg x="4200"><use xlink:href="#a"/><use xlink:href="#11"/><use xlink:href="#18" y="2.171"/><use xlink:href="#19" y="4.342"/><use xlink:href="#11" y="6.513"/><use xlink:href="#20" y="8.684"/><use xlink:href="#21" y="10.855"/><use xlink:href="#11" y="13.026"/><use xlink:href="#27" y="15.197"/><use xlink:href="#28" y="17.368"/><use xlink:href="#11" y="19.539"/><use xlink:href="#22" y="21.71"/><use xlink:href="#29" y="23.881"/><use xlink:href="#30" y="26.052"/><use xlink:href="#31" y="28.223"/><use xlink:href="#32" y="30.394"/><use xlink:href="#14" y="32.565"/></svg><svg x="4275"><use xlink:href="#a"/><use xlink:href="#11"/><use xlink:href="#18" y="2.171"/><use xlink:href="#19" y="4.342"/><use xlink:href="#11" y="6.513"/><use xlink:href="#20" y="8.684"/><use xlink:href="#21" y="10.855"/><use xlink:href="#11" y="13.026"/><use xlink:href="#27" y="15.197"/><use xlink:href="#28" y="17.368"/><use xlink:href="#11" y="19.539"/><use xlink:href="#22" y="21.71"/><use xlink:href="#29" y="23.881"/><use xlink:href="#30" y="26.052"/><use xlink:href="#31" y="28.223"/><use xlink:href="#32" y="30.394"/><use xlink:href="#14" y="32.565"/></svg><svg x="4350"><use xlink:href="#a"/><use xlink:href="#11"/><use xlink:href="#18" y="2.171"/><use xlink:href="#19" y="4.342"/><use xlink:href="#11" y="6.513"/><use xlink:href="#20" y="8.684"/><use xlink:href="#21" y="10.855"/><use xlink:href="#11" y="13.026"/><use xlink:href="#27" y="15.197"/><use xlink:href="#28" y="17.368"/><use xlink:href="#11" y="19.539"/><use xlink:href="#22" y="21.71"/><use xlink:href="#33" y="23.881"/><use xlink:href="#34" y="26.052"/><use xlink:href="#31" y="28.223"/><use xlink:href="#32" y="30.394"/><use xlink:href="#14" y="32.565"/></svg><svg x="4425"><use xlink:href="#a"/><use xlink:href="#11"/><use xlink:href="#18" y="2.171"/><use xlink:href="#19" y="4.342"/><use xlink:href="#11" y="6.513"/><use xlink:href="#20" y="8.684"/><use xlink:href="#21" y="10.855"/><use xlink:href="#11" y="13.026"/><use xlink:href="#27" y="15.197"/><use xlink:href="#28" y="17.368"/><use xlink:href="#11" y="19.539"/><use xlink:href="#22" y="21.71"/><use xlink:href="#33" y="23.881"/><use xlink:href="#34" y="26.052"/><use xlink:href="#31" y="28.223"/><use xlink:href="#32" y="30.394"/><use xlink:href="#14" y="32.565"/></svg><svg x="4500"><use xlink:href="#a"/><use xlink:href="#11"/><use xlink:href="#18" y="2.171"/><use xlink:href="#19" y="4.342"/><use xlink:href="#11" y="6.513"/><use xlink:href="#20" y="8.684"/><use xlink:href="#21" y="10.855"/><use xlink:href="#11" y="13.026"/><use xlink:href="#27" y="15.197"/><use xlink:href="#28" y="17.368"/><use xlink:href="#11" y="19.539"/><use xlink:href="#22" y="21.71"/><use xlink:href="#33" y="23.881"/><use xlink:href="#30" y="26.052"/><use xlink:href="#35" y="28.223"/><use xlink:href="#32" y="30.394"/><use xlink:href="#14" y="32.565"/></svg><svg x="4575"><use xlink:href="#a"/><use xlink:href="#11"/><use xlink:href="#18" y="2.171"/><use xlink:href="#19" y="4.342"/><use xlink:href="#11" y="6.513"/><use xlink:href="#20" y="8.684"/><use xlink:href="#21" y="10.855"/><use xlink:href="#11" y="13.026"/><use xlink:href="#27" y="15.197"/><use xlink:href="#28" y="17.368"/><use xlink:href="#11" y="19.539"/><use xlink:href="#22" y="21.71"/><use xlink:href="#33" y="23.881"/><use xlink:href="#30" y="26.052"/><use xlink:href="#35" y="28.223"/><use xlink:href="#32" y="30.394"/><use xlink:href="#14" y="32.565"/></svg><svg x="4650"><use xlink:href="#a"/><use xlink:href="#11"/><use xlink:href="#18" y="2.171"/><use xlink:href="#19" y="4.342"/><use xlink:href="#11" y="6.513"/><use xlink:href="#20" y="8.684"/><use xlink:href="#21" y="10.855"/><use xlink:href="#11" y="13.026"/><use xlink:href="#27" y="15.197"/><use xlink:href="#28" y="17.368"/><use xlink:href="#11" y="19.539"/><use xlink:href="#22" y="21.71"/><use xlink:href="#33" y="23.881"/><use xlink:href="#30" y="26.052"/><use xlink:href="#31" y="28.223"/><use xlink:href="#36" y="30.394"/><use xlink:href="#14" y="32.565"/></svg><svg x="4725"><use xlink:href="#a"/><use xlink:href="#11"/><use xlink:href="#18" y="2.171"/><use xlink:href="#19" y="4.342"/><use xlink:href="#11" y="6.513"/><use xlink:href="#20" y="8.684"/><use xlink:href="#21" y="10.855"/><use xlink:href="#11" y="13.026"/><use xlink:href="#27" y="15.197"/><use xlink:href="#28" y="17.368"/><use xlink:href="#11" y="19.539"/><use xlink:href="#22" y="21.71"/><use xlink:href="#33" y="23.881"/><use xlink:href="#30" y="26.052"/><use xlink:href="#31" y="28.223"/><use xlink:href="#36" y="30.394"/><use xlink:href="#14" y="32.565"/></svg><svg x="4800"><use xlink:href="#a"/><use xlink:href="#11"/><use xlink:href="#18" y="2.171"/><use xlink:href="#19" y="4.342"/><use xlink:href="#11" y="6.513"/><use xlink:href="#20" y="8.684"/><use xlink:href="#21" y="10.855"/><use xlink:href="#11" y="13.026"/><use xlink:href="#27" y="15.197"/><use xlink:href="#28" y="17.368"/><use xlink:href="#11" y="19.539"/><use xlink:href="#22" y="21.71"/><use xlink:href="#29" y="23.881"/><use xlink:href="#30" y="26.052"/><use xlink:href="#31" y="28.223"/><use xlink:href="#32" y="30.394"/><use xlink:href="#14" y="32.565"/></svg><svg x="4875"><use xlink:href="#a"/><use xlink:href="#11"/><use xlink:href="#18" y="2.171"/><use xlink:href="#19" y="4.342"/><use xlink:href="#11" y="6.513"/><use xlink:href="#20" y="8.684"/><use xlink:href="#21" y="10.855"/><use xlink:href="#11" y="13.026"/><use xlink:href="#27" y="15.197"/><use xlink:href="#28" y="17.368"/><use xlink:href="#11" y="19.539"/><use xlink:href="#22" y="21.71"/><use xlink:href="#29" y="23.881"/><use xlink:href="#30" y="26.052"/><use xlink:href="#31" y="28.223"/><use xlink:href="#32" y="30.394"/><use xlink:href="#14" y="32.565"/></svg><svg x="4950"><use xlink:href="#a"/><use xlink:href="#11"/><use xlink:href="#18" y="2.171"/><use xlink:href="#19" y="4.342"/><use xlink:href="#11" y="6.513"/><use xlink:href="#20" y="8.684"/><use xlink:href="#21" y="10.855"/><use xlink:href="#11" y="13.026"/><use xlink:href="#27" y="15.197"/><use xlink:href="#28" y="17.368"/><use xlink:href="#11" y="19.539"/><use xlink:href="#27" y="21.71"/><use xlink:href="#37" y="23.881"/></svg><svg x="5025"><use xlink:href="#a"/><use xlink:href="#11"/><use xlink:href="#18" y="2.171"/><use xlink:href="#19" y="4.342"/><use xlink:href="#11" y="6.513"/><use xlink:href="#20" y="8.684"/><use xlink:href="#21" y="10.855"/><use xlink:href="#11" y="13.026"/><use xlink:href="#27" y="15.197"/><use xlink:href="#28" y="17.368"/><use xlink:href="#11" y="19.539"/><use xlink:href="#27" y="21.71"/><use xlink:href="#37" y="23.881"/></svg><svg x="5100"><use xlink:href="#a"/><use xlink:href="#19"/><use xlink:href="#11" y="2.171"/><use xlink:href="#20" y="4.342"/><use xlink:href="#21" y="6.513"/><use xlink:href="#11" y="8.684"/><use xlink:href="#27" y="10.855"/><use xlink:href="#28" y="13.026"/><use xlink:href="#11" y="15.197"/><use xlink:href="#27" y="17.368"/><use xlink:href="#37" y="19.539"/><use xlink:href="#11" y="21.71"/><use xlink:href="#38" y="23.881"/><use xlink:href="#39" y="26.052"/><use xlink:href="#40" y="28.223"/><use xlink:href="#41" y="30.394"/><use xlink:href="#14" y="32.565"/></svg><svg x="5175"><use xlink:href="#a"/><use xlink:href="#19"/><use xlink:href="#11" y="2.171"/><use xlink:href="#20" y="4.342"/><use xlink:href="#21" y="6.513"/><use xlink:href="#11" y="8.684"/><use xlink:href="#27" y="10.855"/><use xlink:href="#28" y="13.026"/><use xlink:href="#11" y="15.197"/><use xlink:href="#27" y="17.368"/><use xlink:href="#37" y="19.539"/><use xlink:href="#11" y="21.71"/><use xlink:href="#38" y="23.881"/><use xlink:href="#39" y="26.052"/><use xlink:href="#40" y="28.223"/><use xlink:href="#41" y="30.394"/><use xlink:href="#14" y="32.565"/></svg><svg x="5250"><use xlink:href="#a"/><use xlink:href="#19"/><use xlink:href="#11" y="2.171"/><use xlink:href="#20" y="4.342"/><use xlink:href="#21" y="6.513"/><use xlink:href="#11" y="8.684"/><use xlink:href="#27" y="10.855"/><use xlink:href="#28" y="13.026"/><use xlink:href="#11" y="15.197"/><use xlink:href="#27" y="17.368"/><use xlink:href="#37" y="19.539"/><use xlink:href="#11" y="21.71"/><use xlink:href="#38" y="23.881"/><use xlink:href="#42" y="26.052"/><use xlink:href="#43" y="28.223"/><use xlink:href="#41" y="30.394"/><use xlink:href="#14" y="32.565"/></svg><svg x="5325"><use xlink:href="#a"/><use xlink:href="#19"/><use xlink:href="#11" y="2.171"/><use xlink:href="#20" y="4.342"/><use xlink:href="#21" y="6.513"/><use xlink:href="#11" y="8.684"/><use xlink:href="#27" y="10.855"/><use xlink:href="#28" y="13.026"/><use xlink:href="#11" y="15.197"/><use xlink:href="#27" y="17.368"/><use xlink:href="#37" y="19.539"/><use xlink:href="#11" y="21.71"/><use xlink:href="#38" y="23.881"/><use xlink:href="#42" y="26.052"/><use xlink:href="#43" y="28.223"/><use xlink:href="#41" y="30.394"/><use xlink:href="#14" y="32.565"/></svg><svg x="5400"><use xlink:href="#a"/><use xlink:href="#19"/><use xlink:href="#11" y="2.171"/><use xlink:href="#20" y="4.342"/><use xlink:href="#21" y="6.513"/><use xlink:href="#11" y="8.684"/><use xlink:href="#27" y="10.855"/><use xlink:href="#28" y="13.026"/><use xlink:href="#11" y="15.197"/><use xlink:href="#27" y="17.368"/><use xlink:href="#37" y="19.539"/><use xlink:href="#11" y="21.71"/><use xlink:href="#38" y="23.881"/><use xlink:href="#42" y="26.052"/><use xlink:href="#40" y="28.223"/><use xlink:href="#44" y="30.394"/><use xlink:href="#14" y="32.565"/></svg><svg x="5475"><use xlink:href="#a"/><use xlink:href="#19"/><use xlink:href="#11" y="2.171"/><use xlink:href="#20" y="4.342"/><use xlink:href="#21" y="6.513"/><use xlink:href="#11" y="8.684"/><use xlink:href="#27" y="10.855"/><use xlink:href="#28" y="13.026"/><use xlink:href="#11" y="15.197"/><use xlink:href="#27" y="17.368"/><use xlink:href="#37" y="19.539"/><use xlink:href="#11" y="21.71"/><use xlink:href="#38" y="23.881"/><use xlink:href="#42" y="26.052"/><use xlink:href="#40" y="28.223"/><use xlink:href="#44" y="30.394"/><use xlink:href="#14" y="32.565"/></svg><svg x="5550"><use xlink:href="#a"/><use xlink:href="#19"/><use xlink:href="#11" y="2.171"/><use xlink:href="#20" y="4.342"/><use xlink:href="#21" y="6.513"/><use xlink:href="#11" y="8.684"/><use xlink:href="#27" y="10.855"/><use xlink:href="#28" y="13.026"/><use xlink:href="#11" y="15.197"/><use xlink:href="#27" y="17.368"/><use xlink:href="#37" y="19.539"/><use xlink:href="#11" y="21.71"/><use xlink:href="#38" y="23.881"/><use xlink:href="#39" y="26.052"/><use xlink:href="#40" y="28.223"/><use xlink:href="#41" y="30.394"/><use xlink:href="#14" y="32.565"/></svg><svg x="5625"><use xlink:href="#a"/><use xlink:href="#19"/><use xlink:href="#11" y="2.171"/><use xlink:href="#20" y="4.342"/><use xlink:href="#21" y="6.513"/><use xlink:href="#11" y="8.684"/><use xlink:href="#27" y="10.855"/><use xlink:href="#28" y="13.026"/><use xlink:href="#11" y="15.197"/><use xlink:href="#27" y="17.368"/><use xlink:href="#37" y="19.539"/><use xlink:href="#11" y="21.71"/></svg><svg x="5700"><use xlink:href="#a"/><use xlink:href="#19"/><use xlink:href="#11" y="2.171"/><use xlink:href="#20" y="4.342"/><use xlink:href="#21" y="6.513"/><use xlink:href="#11" y="8.684"/><use xlink:href="#27" y="10.855"/><use xlink:href="#28" y="13.026"/><use xlink:href="#11" y="15.197"/><use xlink:href="#27" y="17.368"/><use xlink:href="#37" y="19.539"/><use xlink:href="#11" y="21.71"/><use xlink:href="#45" y="23.881"/><use xlink:href="#46" y="26.052"/></svg><svg x="5775"><use xlink:href="#a"/><use xlink:href="#19"/><use xlink:href="#11" y="2.171"/><use xlink:href="#20" y="4.342"/><use xlink:href="#21" y="6.513"/><use xlink:href="#11" y="8.684"/><use xlink:href="#27" y="10.855"/><use xlink:href="#28" y="13.026"/><use xlink:href="#11" y="15.197"/><use xlink:href="#27" y="17.368"/><use xlink:href="#37" y="19.539"/><use xlink:href="#11" y="21.71"/><use xlink:href="#45" y="23.881"/><use xlink:href="#46" y="26.052"/></svg><svg x="5850"><use xlink:href="#a"/><use xlink:href="#19"/><use xlink:href="#11" y="2.171"/><use xlink:href="#20" y="4.342"/><use xlink:href="#21" y="6.513"/><use xlink:href="#11" y="8.684"/><use xlink:href="#27" y="10.855"/><use xlink:href="#28" y="13.026"/><use xlink:href="#11" y="15.197"/><use xlink:href="#27" y="17.368"/><use xlink:href="#37" y="19.539"/><use xlink:href="#11" y="21.71"/><use xlink:href="#45" y="23.881"/><use xlink:href="#46" y="26.052"/></svg><svg x="5925"><use xlink:href="#a"/><use xlink:href="#11"/><use xlink:href="#20" y="2.171"/><use xlink:href="#21" y="4.342"/><use xlink:href="#11" y="6.513"/><use xlink:href="#27" y="8.684"/><use xlink:href="#28" y="10.855"/><use xlink:href="#11" y="13.026"/><use xlink:href="#27" y="15.197"/><use xlink:href="#37" y="17.368"/><use xlink:href="#11" y="19.539"/><use xlink:href="#45" y="21.71"/><use xlink:href="#46" y="23.881"/><use xlink:href="#11" y="26.052"/><use xlink:href="#47" y="28.223"/><use xlink:href="#48" y="30.394"/><use xlink:href="#14" y="32.565"/></svg><svg x="6000"><use xlink:href="#a"/><use xlink:href="#11"/><use xlink:href="#20" y="2.171"/><use xlink:href="#21" y="4.342"/><use xlink:href="#11" y="6.513"/><use xlink:href="#27" y="8.684"/><use xlink:href="#28" y="10.855"/><use xlink:href="#11" y="13.026"/><use xlink:href="#27" y="15.197"/><use xlink:href="#37" y="17.368"/><use xlink:href="#11" y="19.539"/><use xlink:href="#45" y="21.71"/><use xlink:href="#46" y="23.881"/><use xlink:href="#11" y="26.052"/><use xlink:href="#47" y="28.223"/><use xlink:href="#48" y="30.394"/><use xlink:href="#14" y="32.565"/></svg><svg x="6075"><use xlink:href="#a"/><use xlink:href="#11"/><use xlink:href="#20" y="2.171"/><use xlink:href="#21" y="4.342"/><use xlink:href="#11" y="6.513"/><use xlink:href="#27" y="8.684"/><use xlink:href="#28" y="10.855"/><use xlink:href="#11" y="13.026"/><use xlink:href="#27" y="15.197"/><use xlink:href="#37" y="17.368"/><use xlink:href="#11" y="19.539"/><use xlink:href="#45" y="21.71"/><use xlink:href="#46" y="23.881"/><use xlink:href="#11" y="26.052"/><use xlink:href="#47" y="28.223"/><use xlink:href="#49" y="30.394"/><use xlink:href="#14" y="32.565"/></svg><svg x="6150"><use xlink:href="#a"/><use xlink:href="#11"/><use xlink:href="#20" y="2.171"/><use xlink:href="#21" y="4.342"/><use xlink:href="#11" y="6.513"/><use xlink:href="#27" y="8.684"/><use xlink:href="#28" y="10.855"/><use xlink:href="#11" y="13.026"/><use xlink:href="#27" y="15.197"/><use xlink:href="#37" y="17.368"/><use xlink:href="#11" y="19.539"/><use xlink:href="#45" y="21.71"/><use xlink:href="#46" y="23.881"/><use xlink:href="#11" y="26.052"/><use xlink:href="#47" y="28.223"/><use xlink:href="#49" y="30.394"/><use xlink:href="#14" y="32.565"/></svg><svg x="6225"><use xlink:href="#a"/><use xlink:href="#11"/><use xlink:href="#20" y="2.171"/><use xlink:href="#21" y="4.342"/><use xlink:href="#11" y="6.513"/><use xlink:href="#27" y="8.684"/><use xlink:href="#28" y="10.855"/><use xlink:href="#11" y="13.026"/><use xlink:href="#27" y="15.197"/><use xlink:href="#37" y="17.368"/><use xlink:href="#11" y="19.539"/><use xlink:href="#45" y="21.71"/><use xlink:href="#46" y="23.881"/><use xlink:href="#11" y="26.052"/><use xlink:href="#47" y="28.223"/><use xlink:href="#49" y="30.394"/><use xlink:href="#14" y="32.565"/></svg><svg x="6300"><use xlink:href="#a"/><use xlink:href="#11"/><use xlink:href="#20" y="2.171"/><use xlink:href="#21" y="4.342"/><use xlink:href="#11" y="6.513"/><use xlink:href="#27" y="8.684"/><use xlink:href="#28" y="10.855"/><use xlink:href="#11" y="13.026"/><use xlink:href="#27" y="15.197"/><use xlink:href="#37" y="17.368"/><use xlink:href="#11" y="19.539"/><use xlink:href="#45" y="21.71"/><use xlink:href="#46" y="23.881"/><use xlink:href="#11" y="26.052"/><use xlink:href="#50" y="28.223"/><use xlink:href="#51" y="30.394"/></svg><svg x="6375"><use xlink:href="#a"/><use xlink:href="#11"/><use xlink:href="#20" y="2.171"/><use xlink:href="#21" y="4.342"/><use xlink:href="#11" y="6.513"/><use xlink:href="#27" y="8.684"/><use xlink:href="#28" y="10.855"/><use xlink:href="#11" y="13.026"/><use xlink:href="#27" y="15.197"/><use xlink:href="#37" y="17.368"/><use xlink:href="#11" y="19.539"/><use xlink:href="#45" y="21.71"/><use xlink:href="#46" y="23.881"/><use xlink:href="#11" y="26.052"/><use xlink:href="#50" y="28.223"/><use xlink:href="#51" y="30.394"/></svg><svg x="6450"><use xlink:href="#a"/><use xlink:href="#11"/><use xlink:href="#20" y="2.171"/><use xlink:href="#21" y="4.342"/><use xlink:href="#11" y="6.513"/><use xlink:href="#27" y="8.684"/><use xlink:href="#28" y="10.855"/><use xlink:href="#11" y="13.026"/><use xlink:href="#27" y="15.197"/><use xlink:href="#37" y="17.368"/><use xlink:href="#11" y="19.539"/><use xlink:href="#45" y="21.71"/><use xlink:href="#46" y="23.881"/><use xlink:href="#11" y="26.052"/><use xlink:href="#50" y="28.223"/><use xlink:href="#51" y="30.394"/></svg><svg x="6525"><use xlink:href="#a"/><use xlink:href="#11"/><use xlink:href="#20" y="2.171"/><use xlink:href="#21" y="4.342"/><use xlink:href="#11" y="6.513"/><use xlink:href="#27" y="8.684"/><use xlink:href="#28" y="10.855"/><use xlink:href="#11" y="13.026"/><use xlink:href="#27" y="15.197"/><use xlink:href="#37" y="17.368"/><use xlink:href="#11" y="19.539"/><use xlink:href="#45" y="21.71"/><use xlink:href="#46" y="23.881"/><use xlink:href="#11" y="26.052"/><use xlink:href="#50" y="28.223"/><use xlink:href="#51" y="30.394"/></svg><svg x="6600"><use xlink:href="#a"/><use xlink:href="#20"/><use xlink:href="#21" y="2.171"/><use xlink:href="#11" y="4.342"/><use xlink:href="#27" y="6.513"/><use xlink:href="#28" y="8.684"/><use xlink:href="#11" y="10.855"/><use xlink:href="#27" y="13.026"/><use xlink:href="#37" y="15.197"/><use xlink:href="#11" y="17.368"/><use xlink:href="#45" y="19.539"/><use xlink:href="#46" y="21.71"/><use xlink:href="#11" y="23.881"/><use xlink:href="#50" y="26.052"/><use xlink:href="#51" y="28.223"/><use xlink:href="#52" y="32.565"/></svg><svg x="6675"><use xlink:href="#a"/><use xlink:href="#11"/><use xlink:href="#27" y="2.171"/><use xlink:href="#28" y="4.342"/><use xlink:href="#11" y="6.513"/><use xlink:href="#27" y="8.684"/><use xlink:href="#37" y="10.855"/><use xlink:href="#11" y="13.026"/><use xlink:href="#45" y="15.197"/><use xlink:href="#46" y="17.368"/><use xlink:href="#11" y="19.539"/><use xlink:href="#50" y="21.71"/><use xlink:href="#51" y="23.881"/><use xlink:href="#52" y="28.223"/><use xlink:href="#53" y="32.565"/></svg><svg x="6750"><use xlink:href="#a"/><use xlink:href="#27"/><use xlink:href="#37" y="2.171"/><use xlink:href="#11" y="4.342"/><use xlink:href="#45" y="6.513"/><use xlink:href="#46" y="8.684"/><use xlink:href="#11" y="10.855"/><use xlink:href="#50" y="13.026"/><use xlink:href="#51" y="15.197"/><use xlink:href="#52" y="19.539"/><use xlink:href="#53" y="23.881"/><use xlink:href="#54" y="28.223"/><use xlink:href="#55" y="30.394"/></svg><svg x="6825"><use xlink:href="#a"/><use xlink:href="#27"/><use xlink:href="#37" y="2.171"/><use xlink:href="#11" y="4.342"/><use xlink:href="#45" y="6.513"/><use xlink:href="#46" y="8.684"/><use xlink:href="#11" y="10.855"/><use xlink:href="#50" y="13.026"/><use xlink:href="#51" y="15.197"/><use xlink:href="#52" y="19.539"/><use xlink:href="#53" y="23.881"/><use xlink:href="#54" y="28.223"/><use xlink:href="#55" y="30.394"/></svg><svg x="6900"><use xlink:href="#a"/><use xlink:href="#27"/><use xlink:href="#37" y="2.171"/><use xlink:href="#11" y="4.342"/><use xlink:href="#45" y="6.513"/><use xlink:href="#46" y="8.684"/><use xlink:href="#11" y="10.855"/><use xlink:href="#50" y="13.026"/><use xlink:href="#51" y="15.197"/><use xlink:href="#52" y="19.539"/><use xlink:href="#53" y="23.881"/><use xlink:href="#54" y="28.223"/><use xlink:href="#55" y="30.394"/><use xlink:href="#3" y="34.736"/></svg><svg x="6975"><use xlink:href="#a"/><use xlink:href="#27"/><use xlink:href="#37" y="2.171"/><use xlink:href="#11" y="4.342"/><use xlink:href="#45" y="6.513"/><use xlink:href="#46" y="8.684"/><use xlink:href="#11" y="10.855"/><use xlink:href="#50" y="13.026"/><use xlink:href="#51" y="15.197"/><use xlink:href="#52" y="19.539"/><use xlink:href="#53" y="23.881"/><use xlink:href="#54" y="28.223"/><use xlink:href="#55" y="30.394"/><use xlink:href="#3" y="34.736"/></svg><svg x="7050"><use xlink:href="#a"/><use xlink:href="#27"/><use xlink:href="#37" y="2.171"/><use xlink:href="#11" y="4.342"/><use xlink:href="#45" y="6.513"/><use xlink:href="#46" y="8.684"/><use xlink:href="#11" y="10.855"/><use xlink:href="#50" y="13.026"/><use xlink:href="#51" y="15.197"/><use xlink:href="#52" y="19.539"/><use xlink:href="#53" y="23.881"/><use xlink:href="#54" y="28.223"/><use xlink:href="#55" y="30.394"/></svg><svg x="7125"><use xlink:href="#a"/><use xlink:href="#27"/><use xlink:href="#37" y="2.171"/><use xlink:href="#11" y="4.342"/><use xlink:href="#45" y="6.513"/><use xlink:href="#46" y="8.684"/><use xlink:href="#11" y="10.855"/><use xlink:href="#50" y="13.026"/><use xlink:href="#51" y="15.197"/><use xlink:href="#52" y="19.539"/><use xlink:href="#53" y="23.881"/><use xlink:href="#54" y="28.223"/><use xlink:href="#55" y="30.394"/><use xlink:href="#1" y="34.736"/></svg><svg x="7200"><use xlink:href="#a"/><use xlink:href="#27"/><use xlink:href="#37" y="2.171"/><use xlink:href="#11" y="4.342"/><use xlink:href="#45" y="6.513"/><use xlink:href="#46" y="8.684"/><use xlink:href="#11" y="10.855"/><use xlink:href="#50" y="13.026"/><use xlink:href="#51" y="15.197"/><use xlink:href="#52" y="19.539"/><use xlink:href="#53" y="23.881"/><use xlink:href="#54" y="28.223"/><use xlink:href="#55" y="30.394"/><use xlink:href="#1" y="34.736"/></svg><svg x="7275"><use xlink:href="#a"/><use xlink:href="#37"/><use xlink:href="#11" y="2.171"/><use xlink:href="#45" y="4.342"/><use xlink:href="#46" y="6.513"/><use xlink:href="#11" y="8.684"/><use xlink:href="#50" y="10.855"/><use xlink:href="#51" y="13.026"/><use xlink:href="#52" y="17.368"/><use xlink:href="#53" y="21.71"/><use xlink:href="#54" y="26.052"/><use xlink:href="#55" y="28.223"/><use xlink:href="#1" y="32.565"/></svg></svg></g></g></svg></svg>